<svg id="Layer_1" data-name="Layer 1" xmlns="http://www.w3.org/2000/svg" viewBox="0 0 112 34"><g id="new_grape_logo" data-name="new grape logo"><path id="Path_3" data-name="Path 3" d="M4.08,8.54A3.72,3.72,0,1,1,.37,12.26,3.72,3.72,0,0,1,4.08,8.54Z" fill="#89d531"/><path id="Path_4" data-name="Path 4" d="M17.37,12.26A3.71,3.71,0,0,1,13.66,16h0a3.72,3.72,0,0,1-3.71-3.73v0a3.72,3.72,0,0,1,3.72-3.69h0a3.7,3.7,0,0,1,3.68,3.72Z" fill="#89d531"/><path id="Path_5" data-name="Path 5" d="M26.94,12.25A3.71,3.71,0,0,1,23.22,16h0a3.69,3.69,0,0,1-3.7-3.71v0A3.7,3.7,0,0,1,23.2,8.53h.06a3.7,3.7,0,0,1,3.68,3.72Z" fill="#89d531"/><path id="Path_6" data-name="Path 6" d="M23.23,18.4a3.14,3.14,0,0,1,3.14,3.13h0a3.13,3.13,0,0,1-3.13,3.13h0a3.13,3.13,0,0,1-3.14-3.11v0a3.13,3.13,0,0,1,3.12-3.13Z" fill="#89d531"/><path id="Path_7" data-name="Path 7" d="M13.66,18.4a3.13,3.13,0,0,1,3.14,3.11v0a3.12,3.12,0,0,1-3.11,3.14h0a3.12,3.12,0,0,1-3.14-3.12h0a3.13,3.13,0,0,1,3.13-3.14Z" fill="#89d531"/><path id="Path_8" data-name="Path 8" d="M11.1,2.9A2.56,2.56,0,0,1,13.63.32h0a2.59,2.59,0,0,1,2.59,2.57h0a2.57,2.57,0,0,1-2.57,2.56A2.54,2.54,0,0,1,11.1,2.93Z" fill="#00b09b"/><path id="Path_9" data-name="Path 9" d="M25.79,31.11a2.57,2.57,0,0,1-2.55,2.57h0a2.57,2.57,0,1,1,0-5.13,2.55,2.55,0,0,1,2.56,2.53Z" fill="#89d531"/>
<g id="Text" fill="#fafafa">
  <g id="Group_4" data-name="Group 4"><path id="Path_10" data-name="Path 10" d="M48.5,12.05a3.62,3.62,0,0,0-3.67-3.17q-3.88,0-7.78,0a3.62,3.62,0,0,0-3.71,3.54V17a3.88,3.88,0,0,0,.1.9A3.67,3.67,0,0,0,37,20.71h7.75c.3,0,.33,0,.25.31a1.59,1.59,0,0,1-1.23,1.15,5.29,5.29,0,0,1-1.19,0H37.2a1.51,1.51,0,0,0-1.61,1.41.74.74,0,0,0,0,.21,3.53,3.53,0,0,1,0,.46c0,.2.06.23.24.23h9A3.64,3.64,0,0,0,48.53,21V12.61A3.51,3.51,0,0,0,48.5,12.05Zm-3.65,6.32H38.59a1.63,1.63,0,0,1-.72-.14A1.39,1.39,0,0,1,37,16.88c0-1.39,0-2.78,0-4.18a1.49,1.49,0,0,1,1.53-1.46h5a1.7,1.7,0,0,1,1,.33,1.34,1.34,0,0,1,.58,1.1V18.2c0,.17-.07.17-.2.17Z"/><path id="Path_11" data-name="Path 11" d="M90.81,8.83H83.19a5.12,5.12,0,0,0-.56,0,3.68,3.68,0,0,0-3.19,3.75V24.3c0,.17,0,.22.22.22h2.87c.19,0,.23-.05.23-.24,0-1.1,0-2.21,0-3.32,0-.23.06-.29.29-.29h7.73a3.68,3.68,0,0,0,3.8-3.55,1,1,0,0,0,0-.25c0-1.44,0-2.87,0-4.31A3.67,3.67,0,0,0,91,8.83Zm-1.44,9.48c-1.07,0-2.13,0-3.19,0H83c-.19,0-.24,0-.24-.23,0-1.75,0-3.5,0-5.24a1.57,1.57,0,0,1,1.47-1.66h5.11a1.56,1.56,0,0,1,1.55,1.08,1.67,1.67,0,0,1,0,.5c0,1.32,0,2.65,0,4a1.55,1.55,0,0,1-1.49,1.59h-.07Z"/><path id="Path_12" data-name="Path 12" d="M74.2,8.86c-1.42,0-2.84,0-4.26,0H65.83c-.25,0-.6-.11-.75.05s0,.48,0,.74a1.43,1.43,0,0,0,1,1.42,2.2,2.2,0,0,0,.72.1h6a1.55,1.55,0,0,1,1.72,1.37,1.29,1.29,0,0,1,0,.34.54.54,0,0,0,0,.18c0,.23-.06.28-.29.28H66.51a3.67,3.67,0,0,0-3.65,3.7,4.27,4.27,0,0,0,.1.8,3.66,3.66,0,0,0,3.63,2.86h7.66a4,4,0,0,0,.6,0A3.67,3.67,0,0,0,78,17c0-1.43,0-2.85,0-4.28A3.89,3.89,0,0,0,74.2,8.86Zm.26,7.07q0,.41,0,.81A1.51,1.51,0,0,1,73,18.31H73c-1.72,0-3.43,0-5.15,0a1.57,1.57,0,0,1-1.18-.56,1,1,0,0,1,0-1.47l.06-.05a1.7,1.7,0,0,1,1.3-.52h6.28c.17,0,.23,0,.22.23Z" /><path id="Path_13" data-name="Path 13" d="M108,8.83h-7.78a3.67,3.67,0,0,0-3.7,3.61v0c0,1.52,0,3,0,4.56a2.9,2.9,0,0,0,.1.83,3.68,3.68,0,0,0,3.64,2.82c1.47,0,2.93,0,4.39,0h4.58c.19,0,.26,0,.24-.23s0-.47,0-.71a1.22,1.22,0,0,0-.39-.93,1.7,1.7,0,0,0-1.28-.5h-6.21a1.52,1.52,0,0,1-1.6-1.43V16.7a2.41,2.41,0,0,0,0-.38c0-.18,0-.23.22-.23.74,0,1.47,0,2.2,0,1.93,0,3.86,0,5.78,0A3.62,3.62,0,0,0,108,8.84Zm-.07,4.3a1.51,1.51,0,0,1-1.27.68h-6.49c-.17,0-.19-.06-.19-.21,0-.31,0-.62,0-.93a1.48,1.48,0,0,1,1.35-1.46h0a.67.67,0,0,1,.34,0h4.78a.69.69,0,0,1,.35,0,1.52,1.52,0,0,1,1.28,1,.93.93,0,0,1-.15,1Z" /><path id="Path_14" data-name="Path 14" d="M58.93,8.88c-1.55,0-3.1,0-4.66,0a3.69,3.69,0,0,0-3.76,3.6v8c0,.19.05.24.24.24,1,0,2,0,3.07,0,.26,0,.31-.07.31-.32q0-3.77,0-7.53a1.51,1.51,0,0,1,1.39-1.63h0a12.44,12.44,0,0,1,2.2,0,1.47,1.47,0,0,1,1.44,1.29c0,.14.12.12.2.12h3.12c.19,0,.22-.07.21-.23A3.8,3.8,0,0,0,58.93,8.88Z" /><path id="Path_15" data-name="Path 15" d="M106.6,11.2h-5.08a.46.46,0,0,0-.2,0h5.48A.47.47,0,0,0,106.6,11.2Z" /></g><g id="Group_5" data-name="Group 5"><path id="Path_16" data-name="Path 16" d="M99.84,27c-.14,0-.24,0-.24.19,0,.65,0,1.31,0,2v.72c-.08,0-.09,0-.11-.07l-.89-1.32-.91-1.37c-.14-.22-.35-.12-.53-.11s-.07.19-.07.28c0,1.09,0,2.18,0,3.27,0,.2.06.24.24.24s.26,0,.26-.25c0-.88,0-1.76,0-2.64l0,0,.13.18c.54.81,1.1,1.62,1.62,2.45a.52.52,0,0,0,.55.28c.12,0,.16,0,.16-.16,0-1.16,0-2.32,0-3.47C100.09,26.91,100,27,99.84,27Z" /><path id="Path_17" data-name="Path 17" d="M45.83,27a2.06,2.06,0,0,0-.08,3.71,1.8,1.8,0,0,0,2.36-1,1.75,1.75,0,0,0,.14-.64,1.85,1.85,0,0,0-1.47-2.17A1.92,1.92,0,0,0,45.83,27Zm1.91,1.86a3,3,0,0,1-.07.59,1.22,1.22,0,0,1-1.31.95,1.25,1.25,0,0,1-1.17-1,2.49,2.49,0,0,1,0-1,1.21,1.21,0,0,1,1.3-1,1.24,1.24,0,0,1,1.21,1.14c0,.13,0,.25,0,.37Z" /><path id="Path_18" data-name="Path 18" d="M89.7,27a1.74,1.74,0,0,0-1.87.53,2,2,0,0,0-.45,1.31,1.94,1.94,0,0,0,0,.48,1.76,1.76,0,0,0,1.68,1.54,1.74,1.74,0,0,0,1.83-1.31,2.44,2.44,0,0,0,0-1.2A1.67,1.67,0,0,0,89.7,27Zm.8,1.88a2.6,2.6,0,0,1-.1.68,1.24,1.24,0,0,1-1.36.86,1.28,1.28,0,0,1-1.12-1.13,2.66,2.66,0,0,1,0-.89,1.22,1.22,0,0,1,1.25-1,1.24,1.24,0,0,1,1.24,1,1.6,1.6,0,0,1,0,.49Z" /><path id="Path_19" data-name="Path 19" d="M37.9,28.67l-1.16-.32a.43.43,0,0,1-.35-.44.53.53,0,0,1,.32-.48,1.3,1.3,0,0,1,.52-.1.81.81,0,0,1,.94.62c.09.21.26.07.39.08s.1-.12.08-.19a1,1,0,0,0-.52-.74,1.78,1.78,0,0,0-1.72,0,.94.94,0,0,0-.4,1.25,1,1,0,0,0,.38.38A2.35,2.35,0,0,0,37,29a6.28,6.28,0,0,1,.94.27.52.52,0,0,1,.33.47.56.56,0,0,1-.3.52,1.19,1.19,0,0,1-1.64-.42.82.82,0,0,1-.09-.19c-.09-.22-.27-.07-.4-.08s-.1.12-.08.2a1.22,1.22,0,0,0,.9,1,2.28,2.28,0,0,0,1.1.05,1.13,1.13,0,0,0,1-1.25.36.36,0,0,0,0-.1A1.09,1.09,0,0,0,37.9,28.67Z" /><path id="Path_20" data-name="Path 20" d="M108.39,28.71c-.41-.13-.83-.23-1.24-.35a.46.46,0,0,1-.38-.47.52.52,0,0,1,.41-.49,1.52,1.52,0,0,1,.82,0,.63.63,0,0,1,.52.49c.07.32.3.18.44.16s.06-.19,0-.29a1.05,1.05,0,0,0-.6-.7,2.07,2.07,0,0,0-.77-.15,1.81,1.81,0,0,0-.85.21.94.94,0,0,0-.49.85.9.9,0,0,0,.5.8,3.52,3.52,0,0,0,.62.22,4.62,4.62,0,0,1,1,.29.52.52,0,0,1,.27.69.51.51,0,0,1-.19.22c-.51.38-1.7.23-1.81-.54,0-.25-.25-.08-.37-.1s-.12.11-.1.2a1.18,1.18,0,0,0,.74.95,2,2,0,0,0,1.44.05,1.08,1.08,0,0,0,.81-.91A1,1,0,0,0,108.39,28.71Z" /><path id="Path_21" data-name="Path 21" d="M65.61,27a.3.3,0,0,0-.41.12.27.27,0,0,0,0,.15c0,.76,0,1.5,0,2.26a.75.75,0,0,1-.59.83,1.57,1.57,0,0,1-.68,0,.75.75,0,0,1-.65-.68,3.49,3.49,0,0,1,0-.65V27.13c0-.15-.07-.2-.2-.17s-.31-.11-.31.13a25.65,25.65,0,0,0,0,2.63,1.1,1.1,0,0,0,.8,1,2.1,2.1,0,0,0,1.24,0,1.14,1.14,0,0,0,.84-.92,9.51,9.51,0,0,0,.06-1.41V27.14C65.67,27.08,65.7,27,65.61,27Z" /><path id="Path_22" data-name="Path 22" d="M74.44,27c-.89,0-1.78,0-2.66,0-.19,0-.18.1-.18.23s0,.23.17.22.56,0,.84,0,.26,0,.25.24c0,.48,0,1,0,1.44s0,1,0,1.42c0,.19,0,.27.24.26s.28,0,.27-.25c0-1,0-1.93,0-2.89,0-.18,0-.23.23-.22s.57,0,.86,0,.18-.08.18-.21S74.64,27,74.44,27Z" /><path id="Path_23" data-name="Path 23" d="M56.51,30.3c-.48,0-1,0-1.44,0-.2,0-.24-.06-.24-.24,0-.95,0-1.9,0-2.86,0-.19,0-.26-.25-.26s-.27.07-.26.27c0,.54,0,1.08,0,1.62v1.7c0,.16,0,.22.2.22.66,0,1.32,0,2,0,.19,0,.2-.08.2-.22S56.7,30.3,56.51,30.3Z" /><path id="Path_24" data-name="Path 24" d="M81.2,28.86c0-.56,0-1.13,0-1.69,0-.2-.07-.23-.24-.22s-.28,0-.27.2q0,1.71,0,3.42c0,.23.13.18.26.18s.26,0,.25-.19C81.19,30,81.2,29.43,81.2,28.86Z"/></g>
</g>
</g></svg>