<svg xmlns="http://www.w3.org/2000/svg" width="29" height="29" viewBox="0 0 29 29"><defs><style>.a{fill:#e7246b;}.b{fill:#fff;}</style></defs><g transform="translate(-119 -32)"><rect class="a" width="29" height="29" rx="5" transform="translate(119 32)"/><path class="b" d="M112.928,113.382a.618.618,0,0,0,.618.618h5.527v-7.266h-6.145Zm7.459.618h5.527a.618.618,0,0,0,.618-.618v-6.647h-6.145Zm6.454-11.9h-2.852a2.665,2.665,0,0,0-4.259-3.181,2.665,2.665,0,0,0-4.259,3.181h-2.852a.618.618,0,0,0-.618.618v2.705h7.072V102.1h1.314v3.324h7.072v-2.705A.618.618,0,0,0,126.841,102.1Zm-7.768-.077H117.72a1.353,1.353,0,1,1,1.353-1.353Zm2.667,0h-1.353v-1.353a1.353,1.353,0,1,1,1.353,1.353Z" transform="translate(13.889 -60.5)"/></g></svg>