<svg xmlns="http://www.w3.org/2000/svg" width="29" height="29" viewBox="0 0 29 29"><defs><style>.a{fill:#7976fe;}.b{fill:#fff;}</style></defs><g transform="translate(-119 -70)"><rect class="a" width="29" height="29" rx="5" transform="translate(119 70)"/><path class="b" d="M141.977,78.049l7.178-7.18a.15.15,0,0,0,.044-.12l-.484-5.72a.3.3,0,0,0-.277-.277l-5.72-.482a.148.148,0,0,0-.12.044l-7.178,7.178a.152.152,0,0,0,0,.214l6.343,6.343A.149.149,0,0,0,141.977,78.049Zm2.329-10.123a.911.911,0,1,1,0,1.289A.913.913,0,0,1,144.306,67.926Zm5.386,5.369-.752-.75a.152.152,0,0,0-.214,0l-6.87,6.857-4.509-4.5a.152.152,0,0,0-.214,0l-.752.75a.152.152,0,0,0,0,.214L141,80.476l.752.75a.152.152,0,0,0,.214,0l7.73-7.717A.152.152,0,0,0,149.692,73.295Z" transform="translate(-9.376 12)"/></g></svg>