<?xml version="1.0" encoding="utf-8"?>
<!-- Generator: Adobe Illustrator 24.0.0, SVG Export Plug-In . SVG Version: 6.00 Build 0)  -->
<svg version="1.1" id="Layer_1" xmlns="http://www.w3.org/2000/svg" xmlns:xlink="http://www.w3.org/1999/xlink" x="0px" y="0px"
	 viewBox="0 0 64 64" style="enable-background:new 0 0 64 64;" xml:space="preserve">
<style type="text/css">
	.st0{fill:#FFFFFF;stroke:#808080;stroke-miterlimit:10;}
	.st1{fill:#FFFFFF;stroke:#808080;stroke-linecap:round;stroke-linejoin:round;stroke-miterlimit:10;}
	.st2{fill:none;stroke:#808080;stroke-linecap:round;stroke-linejoin:round;stroke-miterlimit:10;}
	.st3{fill:none;stroke:#808080;stroke-width:1.5;stroke-linecap:round;stroke-miterlimit:10;}
	.st4{fill:none;stroke:#808080;stroke-width:1.5;stroke-linecap:round;stroke-linejoin:round;stroke-miterlimit:10;}
	.st5{fill:#FFFFFF;stroke:#808080;stroke-width:1.5;stroke-linecap:round;stroke-linejoin:round;stroke-miterlimit:10;}
	.st6{fill:none;stroke:#808080;stroke-width:1.5;stroke-miterlimit:10;}
	.st7{fill:#FFFFFF;stroke:#808080;stroke-linecap:round;stroke-miterlimit:10;}
	.st8{fill:none;stroke:#808080;stroke-width:3;stroke-linecap:round;}
	.st9{fill:none;stroke:#808080;stroke-width:1.5;stroke-linecap:round;stroke-linejoin:round;}
	.st10{fill:none;stroke:#808080;stroke-width:1.5;stroke-linecap:round;}
	.st11{fill:none;stroke:#808080;stroke-width:1.5;}
	.st12{fill:none;stroke:#808080;stroke-width:2;stroke-linecap:round;}
	.st13{fill:#FF0000;}
	.st14{fill:none;stroke:#FFFFFF;stroke-width:1.5;stroke-linecap:round;stroke-miterlimit:10;}
	.st15{fill:none;stroke:#FFFFFF;stroke-width:1.5;stroke-linecap:round;stroke-linejoin:round;stroke-miterlimit:10;}
	.st16{fill:#FFFFFF;}
	.st17{fill:#008480;}
	.st18{fill:#EC3323;}
</style>
<path d="M49,39.99c0,0.27-0.11,0.53-0.3,0.73c-0.4,0.4-1.05,0.4-1.45,0L32,25.46L16.75,40.71c-0.19,0.19-0.45,0.3-0.73,0.3
	c-0.27,0-0.53-0.11-0.73-0.3S15,40.26,15,39.99c0-0.27,0.11-0.53,0.3-0.73l15.97-15.98c0.19-0.19,0.45-0.3,0.73-0.3
	c0.27,0,0.54,0.11,0.72,0.3L48.7,39.26C48.89,39.46,49,39.71,49,39.99z"/>
</svg>
