<svg id="Layer_1" data-name="Layer 1" xmlns="http://www.w3.org/2000/svg" viewBox="0 0 172 44"><title>NKMPlusz_PKM</title><g id="Group_2313" data-name="Group 2313"><path id="Path_2519" data-name="Path 2519" d="M121.62,7.91c3,0,5,1.88,5.17,4.51.19,3.52-2.44,5.72-6.09,5.72h-3.28l-1.06,6.67H113.5l2.69-16.9Zm-2.94,2.5-.87,5.22h2.74c2,0,3.4-1.05,3.32-3-.07-1.31-1-2.19-2.69-2.19Z" fill="#ffc20e"/><path id="Path_2520" data-name="Path 2520" d="M127.11,24.81l2.94-18.32h2.74l-2.93,18.32Z" fill="#ffc20e"/><path id="Path_2521" data-name="Path 2521" d="M137.6,13.2l-1.08,6.67a4.86,4.86,0,0,0-.07.93,1.8,1.8,0,0,0,1.72,1.89h.28c1.48,0,2.32-1.27,2.55-2.72l1.08-6.77h2.72l-1.39,9a10,10,0,0,0-.15,2.12,3.17,3.17,0,0,0,.05.53h-2.67a4.08,4.08,0,0,1-.09-.69,5.61,5.61,0,0,1,0-.58,3.39,3.39,0,0,1-2.9,1.53,3.74,3.74,0,0,1-4-3.52,2.44,2.44,0,0,1,0-.27,7,7,0,0,1,.07-1.29l1.1-6.79Z" fill="#ffc20e"/><path id="Path_2522" data-name="Path 2522" d="M148.31,20.76A2.2,2.2,0,0,0,150.45,23h.1c1.12,0,1.61-.67,1.58-1.34a1.48,1.48,0,0,0-1-1.24l-1.51-.64a3.53,3.53,0,0,1-2.45-3.12c-.1-2,1.49-3.81,4.14-3.81,3.29,0,4.28,2.19,4.42,3.45l-2.38.5A2,2,0,0,0,151.23,15h0c-1,0-1.54.6-1.5,1.31a1.24,1.24,0,0,0,.87,1.14l1.56.67a3.86,3.86,0,0,1,2.68,3.31c.08,1.67-1.14,3.75-4.19,3.75-3.63,0-4.62-2.58-4.69-4Z" fill="#ffc20e"/><path id="Path_2523" data-name="Path 2523" d="M156.27,24.81l.4-2.43,6.87-6.77h-5.61l.4-2.41h9.17l-.4,2.38-7,6.8h6l-.37,2.43Z" fill="#ffc20e"/></g><g id="Group_2314" data-name="Group 2314"><path id="Path_2524" data-name="Path 2524" d="M63.06,24.81l-7-11.11V24.81H52.35V7.91h4.58l6.34,10.28V7.91H67v16.9Z" fill="#fff"/><path id="Path_2525" data-name="Path 2525" d="M76.47,18.16l-1.91,2.12v4.53H70.79V7.91h3.77V15l6.17-7.1h5l-6.58,7.32,6.6,9.59H81Z" fill="#fff"/><path id="Path_2526" data-name="Path 2526" d="M102.76,24.81V13.61l-4.41,11.2h-3L90.89,13.75V24.81H87.31V7.91h4.92l4.64,11.42,4.42-11.42h5.17v16.9Z" fill="#fff"/></g><g id="Group_2315" data-name="Group 2315"><rect id="Rectangle_147" data-name="Rectangle 147" x="3.22" y="17.93" width="38.24" height="7.84" fill="#42c1c7"/><rect id="Rectangle_148" data-name="Rectangle 148" x="3.22" y="17.93" width="38.24" height="7.84" transform="translate(-2.74 40.5) rotate(-81)" fill="#ffc20e"/><circle id="Ellipse_30" data-name="Ellipse 30" cx="36.9" cy="9.43" r="4.58" fill="#fff"/></g><g style="isolation:isolate"><path d="M55.46,29.19a2.86,2.86,0,1,1,0,5.71H53.21v3.45h-.87V29.19Zm-2.25,4.94h2a2.09,2.09,0,1,0,0-4.16h-2Z" fill="#fff"/><path d="M59.57,29.19h.84v9.16h-.84Z" fill="#fff"/><path d="M67.2,38.35h-.79V37.13h0a2.27,2.27,0,0,1-2.19,1.33A2.21,2.21,0,0,1,61.87,36V31.75h.85V35.9a1.6,1.6,0,0,0,1.72,1.81,1.87,1.87,0,0,0,1.93-2V31.75h.83Z" fill="#fff"/><path d="M70.89,31.64a2.19,2.19,0,0,1,2.4,2h-.81a1.46,1.46,0,0,0-1.61-1.26c-.91,0-1.52.47-1.52,1.13s.39.87,1.27,1.09l1,.23c1.32.33,1.81.82,1.81,1.76,0,1.12-1,1.91-2.54,1.91a2.31,2.31,0,0,1-2.54-2h.84a1.56,1.56,0,0,0,1.75,1.26c1,0,1.65-.46,1.65-1.16s-.33-.87-1.22-1.09l-1.07-.26c-1.19-.3-1.76-.87-1.76-1.74C68.52,32.42,69.5,31.64,70.89,31.64Z" fill="#fff"/><path d="M74.32,37.73l3.93-5.26v0H74.32v-.7h4.89v.64l-3.93,5.25v0h4v.69H74.32Z" fill="#fff"/><path d="M83.24,38.35V29.19h.87v4.75h0l4.35-4.75h1.1l-3.76,4.05L90,38.35H88.87l-3.63-4.49-1.13,1.22v3.27Z" fill="#fff"/><path d="M90.36,36.53c0-1.13.84-1.82,2.37-1.92l2-.13v-.57a1.45,1.45,0,0,0-1.63-1.52,1.58,1.58,0,0,0-1.74,1.27H90.6a2.31,2.31,0,0,1,2.57-2,2.17,2.17,0,0,1,2.45,2.19v4.52h-.8V37.1h0a2.44,2.44,0,0,1-2.25,1.36A2,2,0,0,1,90.36,36.53Zm4.42-.66v-.73l-2,.14c-1,.06-1.62.51-1.62,1.25s.62,1.21,1.51,1.21A2,2,0,0,0,94.78,35.87Z" fill="#fff"/><path d="M97,31.75h.79V33h0a2,2,0,0,1,1.93-1.33A1.91,1.91,0,0,1,101.68,33h0a2.17,2.17,0,0,1,2.08-1.39,2,2,0,0,1,2.13,2.2v4.51h-.84V34a1.46,1.46,0,0,0-1.53-1.64,1.66,1.66,0,0,0-1.65,1.81v4.15h-.84V34a1.45,1.45,0,0,0-1.51-1.57,1.73,1.73,0,0,0-1.67,1.91v4.05H97Z" fill="#fff"/><path d="M113.22,35.05c0,2.06-1.13,3.41-2.79,3.41A2.37,2.37,0,0,1,108.18,37h0v3.54h-.84V31.75h.79v1.4h0a2.41,2.41,0,0,1,2.27-1.51C112.08,31.64,113.22,33,113.22,35.05Zm-.85,0c0-1.6-.83-2.66-2.1-2.66s-2.11,1.08-2.11,2.66.86,2.67,2.11,2.67S112.37,36.67,112.37,35.05Z" fill="#fff"/><path d="M114.11,36.53c0-1.13.85-1.82,2.37-1.92l2.06-.13v-.57a1.45,1.45,0,0,0-1.63-1.52,1.56,1.56,0,0,0-1.74,1.27h-.82a2.31,2.31,0,0,1,2.57-2,2.18,2.18,0,0,1,2.46,2.19v4.52h-.8V37.1h0a2.46,2.46,0,0,1-2.26,1.36A2,2,0,0,1,114.11,36.53Zm4.43-.66v-.73l-2,.14c-1,.06-1.62.51-1.62,1.25s.62,1.21,1.51,1.21A2,2,0,0,0,118.54,35.87Zm-2.08-5.13,1.39-1.91h.93l-1.56,1.91Z" fill="#fff"/><path d="M120.78,31.75h.8V33h0a2.38,2.38,0,0,1,4.51,1.11v4.27h-.84V34.21a1.62,1.62,0,0,0-1.74-1.82,1.88,1.88,0,0,0-1.91,2v3.91h-.84Z" fill="#fff"/><path d="M127.58,40.7V40a1.59,1.59,0,0,0,.4,0c.6,0,.93-.3,1.22-1.13l.18-.49-2.48-6.65h.9l2,5.77h0l2-5.77h.88l-2.59,7c-.58,1.56-1,2-2.13,2A2.39,2.39,0,0,1,127.58,40.7Z" fill="#fff"/><path d="M144.36,38.35V30.84h0l-3.19,7.47h-.75l-3.18-7.47h0v7.51h-.81V29.19h1l3.39,8h0l3.39-8h1v9.16Z" fill="#fff"/><path d="M146.42,35.05c0-2.1,1.22-3.41,3-3.41s3,1.31,3,3.41-1.21,3.41-3,3.41S146.42,37.15,146.42,35.05Zm5.17,0c0-1.67-.86-2.66-2.16-2.66s-2.15,1-2.15,2.66.86,2.67,2.15,2.67S151.59,36.73,151.59,35.05Z" fill="#fff"/><path d="M154.76,30.1v1.65h1.3v.7h-1.3v4.24c0,.68.26,1,.87,1l.46,0v.71a4.94,4.94,0,0,1-.62,0c-1.11,0-1.55-.47-1.55-1.66V32.45h-1v-.7h1V30.1Z" fill="#fff"/><path d="M156.69,35.05c0-2.1,1.22-3.41,3-3.41s3,1.31,3,3.41-1.21,3.41-3,3.41S156.69,37.15,156.69,35.05Zm5.17,0c0-1.67-.86-2.66-2.16-2.66s-2.15,1-2.15,2.66.86,2.67,2.15,2.67S161.86,36.73,161.86,35.05Z" fill="#fff"/><path d="M163.83,31.75h.79v1.18h0a1.69,1.69,0,0,1,1.67-1.29,2.5,2.5,0,0,1,.52.07v.83a1.69,1.69,0,0,0-.63-.1c-.94,0-1.53.73-1.53,1.8v4.11h-.84Z" fill="#fff"/></g></svg>