<?xml version="1.0" encoding="UTF-8" standalone="no"?>
<!-- Created with Inkscape (http://www.inkscape.org/) -->

<svg
   xmlns:dc="http://purl.org/dc/elements/1.1/"
   xmlns:cc="http://creativecommons.org/ns#"
   xmlns:rdf="http://www.w3.org/1999/02/22-rdf-syntax-ns#"
   xmlns:svg="http://www.w3.org/2000/svg"
   xmlns="http://www.w3.org/2000/svg"
   xmlns:sodipodi="http://sodipodi.sourceforge.net/DTD/sodipodi-0.dtd"
   xmlns:inkscape="http://www.inkscape.org/namespaces/inkscape"
   width="96.572914mm"
   height="24.016033mm"
   viewBox="0 0 96.572914 24.016033"
   version="1.1"
   id="svg8"
   inkscape:version="0.92.4 (5da689c313, 2019-01-14)"
   sodipodi:docname="logo.svg">
  <defs
     id="defs2" />
  <sodipodi:namedview
     id="base"
     bordercolor="#666666"
     borderopacity="1.0"
     inkscape:pageopacity="0.0"
     inkscape:pageshadow="2"
     inkscape:zoom="2.8"
     inkscape:cx="145.73164"
     inkscape:cy="33.637575"
     inkscape:document-units="mm"
     inkscape:current-layer="g48"
     showgrid="false"
     inkscape:window-width="1822"
     inkscape:window-height="1051"
     inkscape:window-x="-9"
     inkscape:window-y="1341"
     inkscape:window-maximized="1" />
  <metadata
     id="metadata5">
    <rdf:RDF>
      <cc:Work
         rdf:about="">
        <dc:format>image/svg+xml</dc:format>
        <dc:type
           rdf:resource="http://purl.org/dc/dcmitype/StillImage" />
        <dc:title></dc:title>
      </cc:Work>
    </rdf:RDF>
  </metadata>
  <g
     inkscape:label="Layer 1"
     inkscape:groupmode="layer"
     id="layer1"
     transform="translate(-43.140385,-82.244976)">
    <g
       id="g48">
      <path
         style="stroke-width:0.26458335"
         d="m 86.614846,106.49848 c -1.49044,-0.43122 -1.93488,-1.31842 -1.93488,-3.86242 0,-1.22687 0.12259,-2.45974 0.27243,-2.739708 0.64611,-1.207265 3.43777,-1.729198 4.98087,-0.931231 1.03212,0.533734 1.36128,1.460589 1.36128,3.833069 0,2.4251 -0.4716,3.27495 -2.06255,3.71681 -1.13981,0.31656 -1.47317,0.31446 -2.61715,-0.0165 z m 2.58043,-1.5697 c 0.43992,-0.23544 0.51177,-0.56845 0.51177,-2.37194 0,-2.30982 -0.22658,-2.645833 -1.78411,-2.645833 -1.33703,0 -1.74635,0.537323 -1.86831,2.452573 -0.0946,1.48615 -0.033,1.79948 0.44845,2.28095 0.60374,0.60374 1.84946,0.73527 2.6922,0.28425 z m 23.605704,1.68819 c -0.32245,-0.0692 -0.888,-0.48439 -1.25677,-0.92265 -0.63115,-0.75008 -0.67049,-0.97248 -0.67049,-3.79093 0,-2.154028 0.0928,-3.028227 0.33073,-3.115725 0.83874,-0.308446 0.99219,0.105096 0.99219,2.674015 0,3.18063 0.29156,3.74099 1.94646,3.74099 0.61749,0 1.26558,-0.14287 1.4402,-0.3175 0.208,-0.20799 0.3175,-1.30936 0.3175,-3.1934 0,-2.831077 0.009,-2.874582 0.59532,-2.791352 0.57713,0.08197 0.59757,0.1872 0.66928,3.446762 0.0715,3.24785 0.0535,3.37556 -0.52917,3.75449 -0.64815,0.42156 -2.87674,0.72099 -3.83525,0.5153 z m 15.27066,6.8e-4 c -1.75651,-0.57868 -2.38125,-1.64066 -2.38125,-4.04779 0,-1.76723 0.44283,-2.912223 1.38027,-3.568835 0.76295,-0.534387 2.91065,-0.533564 3.94538,0.0016 1.25288,0.647888 2.03529,3.089665 1.2096,3.774935 -0.18916,0.15698 -1.35002,0.32039 -2.57969,0.36312 -2.04918,0.0712 -2.24247,0.12464 -2.316,0.64004 -0.20365,1.42749 2.04161,1.93369 3.42264,0.77164 1.33852,-1.1263 2.2111,-0.0607 0.93329,1.13976 -0.90399,0.84925 -2.55927,1.27317 -3.61424,0.92561 z m 2.91041,-5.25144 c 0,-0.64339 -1.00037,-1.455203 -1.79321,-1.455203 -0.94306,0 -1.91095,0.677653 -1.91095,1.337923 0,0.46019 0.1944,0.51416 1.85208,0.51416 1.46991,0 1.85208,-0.0819 1.85208,-0.39688 z m -54.186664,4.84188 c -0.223,-0.223 -0.3175,-1.70965 -0.3175,-4.99469 0,-3.834718 0.0715,-4.73651 0.39687,-5.00656 0.78119,-0.648324 1.19063,0.13621 1.19063,2.281354 0,1.890156 0.0203,1.951976 0.64225,1.951976 0.49194,0 1.03641,-0.510838 2.3265,-2.182809 1.08591,-1.407351 1.8669,-2.182813 2.1984,-2.182813 0.90524,0 0.70666,0.77714 -0.65983,2.582231 -0.73278,0.96798 -1.33232,1.832711 -1.33232,1.921621 0,0.0889 0.28453,0.54067 0.63229,1.00391 1.00718,1.34162 2.28657,4.08425 2.11445,4.53277 -0.16906,0.44058 -0.58073,0.52145 -1.05897,0.20802 -0.16313,-0.10691 -0.66394,-0.92481 -1.11291,-1.81756 -1.0706,-2.12884 -1.45238,-2.47787 -2.71043,-2.47787 h -1.03943 v 1.93146 c 0,1.73255 -0.25791,2.56646 -0.79375,2.56646 -0.0873,0 -0.30163,-0.14287 -0.47625,-0.3175 z m 15.57443,-0.059 c -0.38573,-0.46479 -0.40449,-0.42842 1.74558,-3.38454 0.92239,-1.26819 1.67707,-2.36952 1.67707,-2.4474 0,-0.0779 -0.69979,-0.14159 -1.5551,-0.14159 -1.10604,0 -1.65708,-0.12287 -1.90824,-0.425507 -0.30036,-0.361908 -0.27601,-0.481907 0.1629,-0.802847 0.37667,-0.275428 1.15243,-0.357018 2.87241,-0.302096 3.3615,0.107334 3.41136,0.286049 0.98159,3.51864 -1.06016,1.41045 -1.82678,2.66467 -1.70359,2.78715 0.1232,0.12248 0.93836,0.25899 1.81149,0.30336 1.38422,0.0704 1.5875,0.14843 1.5875,0.60984 0,0.48929 -0.20138,0.53482 -2.67227,0.60413 -2.11155,0.0592 -2.74089,-0.008 -2.99934,-0.31914 z m 7.19296,0.20124 c -0.36701,-0.14809 -0.48257,-6.33211 -0.12824,-6.862768 0.44602,-0.667978 1.437264,-0.842695 4.803174,-0.846624 3.54742,-0.0041 3.55109,-0.0035 4.29948,0.744887 0.73628,0.736285 0.74903,0.801295 0.74903,3.820395 0,2.54457 -0.0711,3.09865 -0.41466,3.23048 -0.783,0.30047 -1.03883,-0.41483 -1.13193,-3.16497 -0.0972,-2.87214 -0.27785,-3.360755 -1.24229,-3.360755 -1.39864,0 -1.44445,0.106055 -1.44445,3.343905 0,2.5609 -0.0665,3.04821 -0.43514,3.18968 -0.82539,0.31673 -1.15236,-0.64796 -1.15236,-3.39985 0,-2.33596 -0.0524,-2.61401 -0.54225,-2.87616 -0.29824,-0.15961 -0.86379,-0.253093 -1.25677,-0.207741 l -0.71452,0.08246 -0.1323,2.91041 c -0.15414,3.39128 -0.29911,3.78308 -1.256774,3.39665 z m 21.515524,-0.06 c -0.48571,-0.7859 -2.79625,-6.513761 -2.79625,-6.931954 0,-0.324186 0.18434,-0.505701 0.51355,-0.505701 0.62803,0 0.72869,0.149114 1.77813,2.633995 0.46006,1.08933 0.94794,2.01775 1.08418,2.06317 0.13624,0.0454 0.63523,-0.84405 1.10886,-1.97657 0.47363,-1.13253 0.98259,-2.207964 1.13103,-2.389865 0.38946,-0.477264 1.26342,-0.410128 1.26342,0.09705 0,0.592164 -2.36939,6.213715 -2.85854,6.782115 -0.43071,0.50047 -0.99137,0.60477 -1.22438,0.22776 z m 12.86709,-0.0822 c -0.37454,-0.37454 -0.45008,-9.646966 -0.0833,-10.225721 0.12435,-0.19622 0.44995,-0.313857 0.72355,-0.261416 0.44624,0.08553 0.50517,0.401492 0.57228,3.068741 0.068,2.703826 0.11976,2.973396 0.57067,2.973396 0.27272,0 0.99693,-0.59848 1.60936,-1.32994 1.3464,-1.608134 1.93641,-1.977085 2.35504,-1.47267 0.23314,0.280916 0.0922,0.63329 -0.63367,1.58423 -1.00655,1.31865 -1.1288,1.78526 -0.5858,2.23591 0.19124,0.15872 0.62413,0.87873 0.96197,1.60004 1.14399,2.44246 -0.12151,2.98863 -1.4013,0.60479 -0.46357,-0.86347 -1.01513,-1.50238 -1.43469,-1.6619 -1.08279,-0.41167 -1.3841,-0.13112 -1.3841,1.28874 0,1.13226 -0.32403,1.9133 -0.79375,1.9133 -0.0873,0 -0.30163,-0.14288 -0.47625,-0.3175 z m -82.955699,-0.12347 c -0.09701,-0.097 -0.17639,-0.32828 -0.17639,-0.51391 0,-0.42428 4.447503,-8.110859 4.829644,-8.347034 0.432096,-0.267049 0.99119,0.04491 0.99119,0.553059 0,0.250221 -1.03922,2.261545 -2.309379,4.469605 -2.159196,3.75359 -2.745261,4.42808 -3.335065,3.83828 z m 5.495698,-0.16796 c -0.182838,-0.47646 0.640304,-5.8093 0.943483,-6.112473 0.627298,-0.627298 0.548404,2.140173 -0.163328,5.729213 -0.151918,0.76609 -0.556905,0.96504 -0.780155,0.38326 z m 3.848692,-6.291784 c -2.232215,-3.880882 -2.410523,-4.291685 -2.028584,-4.673624 0.619345,-0.619345 0.890886,-0.291918 3.477895,4.19367 1.848829,3.205668 2.232853,4.050748 1.979478,4.356048 -0.1729,0.20833 -0.464461,0.37879 -0.647912,0.37879 -0.183452,0 -1.434846,-1.9147 -2.780877,-4.254884 z m -14.679885,1.874064 c -0.254884,-0.41241 -0.278794,-0.39805 2.64499,-1.5877 2.808782,-1.142855 3.307865,-1.249426 3.307865,-0.70635 0,0.286736 -2.147519,1.26737 -5.33105,2.43436 -0.239942,0.0879 -0.519755,0.0248 -0.621805,-0.14031 z m 18.123689,-3.998176 c -2.693514,-2.167999 -2.811172,-2.292753 -2.477246,-2.626678 0.329623,-0.329623 5.123079,3.303487 5.123079,3.882941 0,0.660566 -0.644649,0.35448 -2.645833,-1.256263 z m 48.155395,0.624305 c 0.001,-0.473054 1.43612,-2.182812 1.83187,-2.182812 0.12033,0 0.36578,0.177133 0.54546,0.393628 0.26982,0.325115 0.16493,0.555387 -0.6026,1.322917 -1.00414,1.004141 -1.77669,1.207109 -1.77473,0.466267 z m 2.38002,-0.01424 c 0,-0.262496 0.41782,-0.882227 0.92848,-1.37718 0.86236,-0.83583 0.95952,-0.868866 1.36449,-0.463897 0.40497,0.404969 0.369,0.503039 -0.50514,1.37718 -1.02186,1.021855 -1.78783,1.220605 -1.78783,0.463897 z M 86.106066,97.681604 c -0.24071,-0.627298 0.0999,-1.26083 0.62362,-1.159965 0.2929,0.05641 0.46382,0.330403 0.46382,0.743534 0,0.75423 -0.8351,1.074026 -1.08744,0.416431 z m 2.54105,-0.02148 c -0.29277,-0.352759 -0.28135,-0.489964 0.07,-0.841278 0.5674,-0.567399 1.31549,-0.252166 1.20697,0.508593 -0.10338,0.724686 -0.8008,0.906389 -1.27693,0.332685 z m -45.68021,-0.80375 c -0.08875,-0.231286 -0.04754,-0.534348 0.09158,-0.673468 0.147994,-0.147995 2.275861,-0.222951 5.12836,-0.180652 4.674926,0.06932 4.875414,0.09405 4.875414,0.601461 0,0.507817 -0.20039,0.532072 -4.966994,0.601173 -4.338066,0.06289 -4.987424,0.01876 -5.12836,-0.348514 z m 7.360451,-4.816722 c -4.026138,-6.924186 -4.166428,-7.261977 -3.080951,-7.418367 0.756168,-0.108944 5.622157,8.243812 5.140571,8.824088 -0.576138,0.694203 -1.011291,0.397203 -2.05962,-1.405721 z m -4.087818,-0.347837 c -2.045949,-1.63172 -2.591372,-2.364142 -1.760535,-2.364142 0.355473,0 5.011381,3.713964 5.011381,3.997521 0,0.624332 -1.135105,0.054 -3.250846,-1.633379 z m 11.364735,0.634468 c -0.383471,-0.383468 -0.144475,-1.093361 0.418923,-1.244346 0.327422,-0.08775 2.44779,-0.161165 4.71193,-0.163152 4.328462,-0.0038 5.287079,0.219548 4.930508,1.148752 -0.146561,0.381934 -0.761055,0.435136 -5.025975,0.435136 -2.672447,0 -4.938373,-0.07938 -5.035386,-0.17639 z m 30.086202,-0.189378 c -1.37424,-0.622088 -1.68759,-1.331505 -1.68759,-3.820605 0,-2.167998 0.0197,-2.236247 0.89958,-3.116127 0.81263,-0.812628 1.04536,-0.899584 2.40771,-0.899584 1.36718,0 1.59359,0.08547 2.42268,0.914551 0.82511,0.825117 0.90661,1.038569 0.83343,2.182813 l -0.0811,1.268262 -2.42657,0.132291 c -1.33462,0.07276 -2.52208,0.228338 -2.63879,0.345731 -0.11672,0.117391 -0.0329,0.534109 0.18617,0.926042 0.53949,0.964994 2.52446,1.163516 3.2805,0.328091 0.73194,-0.808778 1.5228,-0.719582 1.41783,0.159907 -0.17554,1.470755 -2.839,2.382057 -4.61384,1.578628 z m 3.33949,-5.17548 c 0,-0.625938 -0.95292,-1.337919 -1.79069,-1.337919 -0.69563,0 -2.02724,1.189382 -1.77981,1.589717 0.0892,0.144301 0.92903,0.262366 1.86633,0.262366 1.51121,0 1.70417,-0.05822 1.70417,-0.514164 z m 22.515094,5.206619 c -1.24423,-0.639432 -1.74305,-1.66496 -1.74422,-3.585933 -10e-4,-2.122934 0.47487,-3.378253 1.47826,-3.897124 0.85475,-0.442011 2.54146,-0.502405 3.5304,-0.12641 0.99482,0.378229 1.76362,1.776211 1.67692,3.049304 l -0.0721,1.058334 -2.51082,0.132291 c -2.15996,0.113805 -2.52369,0.199745 -2.60288,0.614998 -0.25861,1.355958 2.12751,2.025441 3.4661,0.972502 0.37,-0.291041 0.86231,-0.529166 1.09402,-0.529166 0.59833,0 0.52778,0.951833 -0.11845,1.598065 -1.03794,1.037944 -2.9373,1.360656 -4.19726,0.713139 z m 3.41408,-5.206619 c 0,-1.20722 -2.21286,-1.770891 -3.175,-0.808752 -1.01568,1.015677 -0.70844,1.322916 1.32291,1.322916 1.65768,0 1.85209,-0.05397 1.85209,-0.514164 z m 4.88837,5.171906 c -1.11281,-0.484852 -1.44879,-1.4145 -1.44879,-4.008732 0,-2.011503 -0.05,-2.23651 -0.49677,-2.23651 -0.27322,0 -0.65568,-0.191479 -0.84991,-0.425505 -0.30004,-0.361527 -0.27741,-0.480875 0.15047,-0.79375 0.27698,-0.202536 0.65116,-0.368245 0.8315,-0.368245 0.18035,0 0.36595,-0.26789 0.41245,-0.595312 0.12781,-0.899864 1.20606,-0.962832 1.4268,-0.08332 0.11828,0.471252 0.34824,0.678635 0.75253,0.678635 0.83572,0 1.59713,0.628484 1.3961,1.152364 -0.11133,0.290124 -0.47836,0.435136 -1.10133,0.435136 h -0.93434 v 2.216563 c 0,2.362748 0.11674,2.607429 1.38906,2.91137 1.18717,0.283599 0.83712,1.518367 -0.41851,1.476295 -0.17,-0.0057 -0.66917,-0.16724 -1.10926,-0.358986 z M 76.638486,91.819574 c -0.0883,-0.230182 -0.1606,-2.496105 -0.1606,-5.035386 0,-4.0303 0.055,-4.637977 0.43284,-4.782968 0.69779,-0.267769 1.14882,0.187878 3.47833,3.513913 1.21383,1.733095 2.31867,3.190769 2.45519,3.239275 0.14635,0.052 0.24822,-1.320819 0.24822,-3.34513 0,-2.505403 0.0894,-3.466195 0.33073,-3.554947 0.9203,-0.338434 0.99219,0.03274 0.99219,5.122445 0,4.230981 -0.0625,5.037307 -0.40024,5.166926 -0.59012,0.226449 -0.95594,-0.170458 -3.50184,-3.799459 l -2.31563,-3.300754 -0.0747,3.24975 c -0.0423,1.842122 -0.19962,3.400293 -0.36313,3.597302 -0.39144,0.471665 -0.92614,0.437827 -1.12138,-0.07097 z m 17.48743,0.251273 c -0.10204,-0.102045 -0.18553,-1.710447 -0.18553,-3.574228 v -3.388691 l 0.7276,-0.375735 c 0.84248,-0.435054 7.299354,-0.540559 8.067054,-0.131815 0.92189,0.490834 1.25951,1.674903 1.25951,4.417177 0,2.011955 -0.0929,2.70365 -0.39687,2.955951 -0.31663,0.262782 -0.47712,0.262782 -0.79375,0 -0.3034,-0.251804 -0.39688,-0.940437 -0.39688,-2.923915 0,-2.739798 -0.26444,-3.426085 -1.32017,-3.426085 -1.255644,0 -1.325664,0.167473 -1.325664,3.17091 0,2.2103 -0.0891,2.923619 -0.39687,3.17909 -0.31664,0.262782 -0.47712,0.262782 -0.79375,0 -0.30341,-0.251804 -0.39688,-0.940437 -0.39688,-2.923915 0,-2.802433 -0.25913,-3.426085 -1.42354,-3.426085 -1.2734,0 -1.46996,0.453393 -1.54714,3.568737 -0.0589,2.37667 -0.14682,2.921596 -0.4818,2.98571 -0.22538,0.04314 -0.49327,-0.0051 -0.59532,-0.107106 z m 11.103364,-0.0092 c -0.41149,-0.411485 -0.0555,-1.153922 1.69154,-3.527777 l 1.84985,-2.513542 -1.26358,-0.06914 c -1.81964,-0.09956 -2.4542,-0.285811 -2.4542,-0.720336 0,-0.210389 0.2303,-0.505778 0.51177,-0.656418 0.54969,-0.294185 4.19885,-0.37872 4.89054,-0.113292 0.78353,0.300667 0.42084,1.24501 -1.41748,3.690734 -1.0098,1.343448 -1.76387,2.514774 -1.6757,2.602942 0.0882,0.08817 0.90164,0.160308 1.8077,0.160308 1.68011,0 2.27936,0.377137 1.63041,1.026091 -0.31937,0.319368 -5.26501,0.426286 -5.57085,0.120436 z m 19.79421,-0.418915 c -0.0813,-0.327422 -0.11333,-2.022623 -0.0712,-3.767116 0.0691,-2.86071 0.12542,-3.18116 0.57409,-3.267179 0.27361,-0.05246 0.5992,0.06517 0.72355,0.261387 0.36068,0.569135 0.28849,6.678926 -0.0833,7.050721 -0.49398,0.493972 -0.9809,0.375637 -1.14315,-0.277813 z M 54.139201,91.028274 c -0.402719,-0.402717 -0.395848,-0.499554 0.0944,-1.330457 0.290801,-0.492871 1.389417,-2.385126 2.441369,-4.205013 1.354545,-2.343375 2.054677,-3.308882 2.399416,-3.308882 0.267727,0 0.553323,0.173422 0.634659,0.385379 0.147915,0.385461 -4.108043,8.04058 -4.780574,8.598732 -0.26707,0.221649 -0.462457,0.187052 -0.789268,-0.139759 z m 4.750856,-1.689332 c -0.294222,-0.476063 5.551032,-2.893481 5.973892,-2.470622 0.381307,0.381307 -0.111331,0.694069 -2.791127,1.77201 -2.510448,1.009822 -2.933091,1.102591 -3.182765,0.698612 z m -6.28632,-0.857671 c -0.141243,-0.42373 0.696777,-5.962338 0.938744,-6.204305 0.104532,-0.104532 0.310346,-0.06977 0.457367,0.07725 0.239003,0.239003 -0.289105,5.06711 -0.668713,6.113558 -0.152525,0.420452 -0.589045,0.428551 -0.727398,0.01349 z m 72.380703,-5.391823 c -0.0881,-0.229565 0.0104,-0.587917 0.21878,-0.796337 0.32156,-0.321554 0.45376,-0.324242 0.87292,-0.01775 0.61608,0.450498 0.37144,1.231482 -0.38575,1.231482 -0.30018,0 -0.61785,-0.187825 -0.70595,-0.417391 z"
         id="path29"
         inkscape:connector-curvature="0" />
      <path
         style="stroke-width:0.26458335"
         d="m 85.717946,105.48761 c -0.71988,-0.71988 -0.7734,-0.91332 -0.7734,-2.79552 0,-1.11217 0.1226,-2.25119 0.27243,-2.53116 0.63907,-1.194107 2.9992,-1.682343 4.46595,-0.923859 1.05664,0.546415 1.42644,1.648509 1.30057,3.876069 -0.0943,1.66798 -0.19227,1.96233 -0.83863,2.51831 -0.57969,0.49863 -1.03571,0.62956 -2.19271,0.62956 -1.2618,0 -1.56617,-0.10537 -2.23421,-0.7734 z m 3.9891,-0.54952 c 0.41832,-0.41832 0.52917,-0.88194 0.52917,-2.21328 0,-2.26937 -0.59608,-3.078386 -2.26816,-3.078386 -1.7714,0 -2.22976,0.598266 -2.22976,2.910416 0,2.31981 0.45638,2.91042 2.24896,2.91042 0.83785,0 1.34742,-0.15679 1.71979,-0.52917 z m 3.09633,1.15605 c -0.38301,-0.38301 -0.13885,-0.86258 1.66617,-3.27272 1.01865,-1.36013 1.85209,-2.55865 1.85209,-2.66338 0,-0.3328 -0.7936,-0.511616 -2.2706,-0.511616 -0.78846,0 -1.43357,-0.119063 -1.43357,-0.264584 0,-0.157821 1.01424,-0.264583 2.51354,-0.264583 2.0762,0 2.51354,0.07021 2.51354,0.403495 0,0.221922 -0.84383,1.526148 -1.8752,2.898278 -1.03135,1.37213 -1.79823,2.61931 -1.70417,2.77151 0.0941,0.15219 0.94782,0.27672 1.89725,0.27672 1.26301,0 1.69683,0.0888 1.61667,0.33073 -0.11968,0.36135 -4.44246,0.62941 -4.77572,0.29615 z M 112.0014,105.7468 c -0.78747,-0.74314 -0.90067,-1.31033 -0.80861,-4.05146 0.108,-3.215851 0.57597,-3.0721 0.73926,0.22709 0.0843,1.70246 0.26413,2.83117 0.49542,3.10885 0.43572,0.52313 2.92939,0.6095 3.42042,0.11848 0.20804,-0.20805 0.3175,-1.31018 0.3175,-3.19705 0,-2.185803 0.0797,-2.853101 0.33073,-2.769768 0.23311,0.07738 0.35262,1.009418 0.40493,3.157968 0.0885,3.63397 0.0255,3.7293 -2.55405,3.86942 -1.49949,0.0815 -1.83926,0.0143 -2.3456,-0.46353 z m 15.18555,0.21456 c -1.13446,-0.65945 -1.60225,-3.59367 -0.85721,-5.37681 0.5587,-1.337142 1.47204,-1.825132 3.11969,-1.666813 1.80902,0.173824 2.65609,1.067311 2.53852,2.677613 l -0.0799,1.09378 -2.23577,0.0777 c -2.47464,0.086 -2.90797,0.28166 -2.72648,1.23106 0.30609,1.6012 2.61971,2.14665 3.92079,0.92435 0.45394,-0.42645 0.73564,-0.5281 0.92864,-0.3351 0.193,0.193 0.0253,0.48891 -0.55297,0.97545 -0.66728,0.56148 -1.09837,0.69684 -2.19878,0.69037 -0.75282,-0.004 -1.58827,-0.13565 -1.85657,-0.2916 z m 4.05969,-4.59515 c 0,-0.98467 -0.87959,-1.719786 -2.0578,-1.719786 -1.34053,0 -2.17554,0.615066 -2.17554,1.602506 v 0.77874 h 2.11667 c 2.08139,0 2.11667,-0.011 2.11667,-0.66146 z m -80.024041,4.38573 c -0.231445,-0.37449 4.333803,-8.222183 4.7831,-8.222183 0.200118,0 0.363852,0.118681 0.363852,0.263736 0,0.378167 -4.196334,7.578267 -4.623215,7.932547 -0.238493,0.19793 -0.41211,0.20652 -0.523737,0.0259 z m 25.645477,-0.0744 c -0.0766,-0.19959 -0.10642,-2.32285 -0.0663,-4.71836 0.0614,-3.662703 0.13609,-4.355464 0.46984,-4.355464 0.312,0 0.41341,0.438568 0.47415,2.050521 l 0.0773,2.050523 h 0.87456 c 0.77824,0 1.04657,-0.22384 2.43627,-2.03223 1.51519,-1.971696 2.22316,-2.584651 2.22316,-1.924788 0,0.176228 -0.61138,1.145127 -1.35863,2.153108 l -1.35863,1.83269 0.6692,0.71321 c 0.66466,0.70837 2.31265,3.75655 2.31265,4.27755 0,0.77912 -0.76348,0.0729 -1.53569,-1.42061 -1.12574,-2.1772 -1.63456,-2.62208 -3.03115,-2.65026 l -1.1217,-0.0226 -0.1323,2.09579 c -0.0846,1.34075 -0.25139,2.13506 -0.46288,2.20481 -0.18182,0.06 -0.39325,-0.0543 -0.46984,-0.25386 z m 22.80495,0.14249 c -0.097,-0.097 -0.17639,-1.44347 -0.17639,-2.99213 0,-3.578104 0.1636,-3.85075 2.293604,-3.822394 0.84857,0.0113 1.78098,0.04387 2.07202,0.07239 0.29104,0.02852 1.19209,-0.02344 2.00233,-0.115451 1.32196,-0.15013 1.55277,-0.09888 2.24895,0.49943 0.76856,0.660505 0.7758,0.693285 0.7758,3.511135 0,2.03964 -0.0936,2.87597 -0.33072,2.95596 -0.24875,0.0839 -0.3317,-0.50054 -0.33463,-2.35789 -0.005,-3.06688 -0.30096,-3.761611 -1.65127,-3.874207 -1.74483,-0.145492 -1.86268,0.05808 -1.89127,3.267057 -0.017,1.9054 -0.12723,2.8883 -0.33169,2.95715 -0.21561,0.0726 -0.33306,-0.72959 -0.39687,-2.71065 -0.10237,-3.17822 -0.32672,-3.564002 -2.07266,-3.564002 -1.45701,0 -1.58984,0.291801 -1.58984,3.492502 0,2.61597 -0.12774,3.17073 -0.617364,2.68111 z m 20.195024,-3.13445 c -1.2913,-3.048313 -1.53152,-4.148842 -0.73079,-3.34812 0.17446,0.174469 0.74571,1.3498 1.26943,2.61184 0.52373,1.26204 1.07816,2.3366 1.23207,2.3879 0.15391,0.0513 0.79165,-1.10533 1.41719,-2.57031 0.62554,-1.46498 1.26583,-2.615803 1.42287,-2.557393 0.39131,0.145542 0.31551,0.40858 -1.09803,3.810363 -0.86865,2.09046 -1.36685,2.97656 -1.67354,2.97656 -0.30788,0 -0.85039,-0.97661 -1.8392,-3.31084 z m 14.289,-1.54628 c 0,-4.448555 0.19519,-5.919844 0.63374,-4.777008 0.088,0.229348 0.16001,1.597882 0.16001,3.041189 v 2.624189 h 0.76161 c 0.59608,0 1.03182,-0.31627 2.00484,-1.4552 1.15774,-1.355163 1.73147,-1.764066 1.73147,-1.23405 0,0.12164 -0.42856,0.77124 -0.95236,1.44355 l -0.95235,1.2224 0.52093,0.73925 c 0.53853,0.76424 1.64836,2.85816 1.64836,3.10997 0,0.0786 -0.17658,0.14283 -0.39241,0.14283 -0.21583,0 -0.69192,-0.59103 -1.05798,-1.31341 -0.73686,-1.45412 -1.39203,-1.93561 -2.46529,-1.81175 -0.65893,0.076 -0.72482,0.19408 -0.84682,1.51712 -0.0746,0.80934 -0.27644,1.48206 -0.46302,1.5434 -0.25659,0.0844 -0.33073,-0.9899 -0.33073,-4.79248 z m -71.782039,1.48369 c -2.623254,-4.226886 -4.203179,-7.26593 -3.923025,-7.546084 0.227071,-0.227071 0.391517,-0.20637 0.658871,0.08294 0.730432,0.790419 4.686945,7.944464 4.532162,8.194914 -0.293365,0.47467 -0.64534,0.27154 -1.268008,-0.73178 z M 112.7258,97.265174 c 0.5229,-0.734337 1.32292,-1.082238 1.32292,-0.575286 0,0.331605 -1.17943,1.369036 -1.55642,1.369036 -0.21398,0 -0.13111,-0.281694 0.2335,-0.79375 z m 2.38125,0 c 0.5229,-0.734337 1.32292,-1.082238 1.32292,-0.575286 0,0.331605 -1.17943,1.369036 -1.55642,1.369036 -0.21398,0 -0.13111,-0.281694 0.2335,-0.79375 z m -28.839584,0 c 0,-0.14552 0.1786,-0.264583 0.39688,-0.264583 0.21828,0 0.39687,0.119063 0.39687,0.264583 0,0.145521 -0.17859,0.264584 -0.39687,0.264584 -0.21828,0 -0.39688,-0.119063 -0.39688,-0.264584 z m 2.64583,0 c 0,-0.14552 0.1786,-0.264583 0.39688,-0.264583 0.21828,0 0.39687,0.119063 0.39687,0.264583 0,0.145521 -0.17859,0.264584 -0.39687,0.264584 -0.21828,0 -0.39688,-0.119063 -0.39688,-0.264584 z M 43.471114,97.089945 c -0.181901,-0.0734 -0.330729,-0.302125 -0.330729,-0.508278 0,-0.309872 0.848222,-0.374827 4.894791,-0.374827 4.007454,0 4.894792,0.06681 4.894792,0.368567 0,0.202713 -0.18833,0.440838 -0.418515,0.529167 -0.497758,0.191008 -8.56306,0.177956 -9.040339,-0.01463 z m 5.86881,-7.420198 c -1.154173,-1.99467 -2.182556,-3.83635 -2.285294,-4.09262 -0.206642,-0.515451 0.06262,-0.813094 0.480799,-0.531476 0.349731,0.235524 4.600789,7.597704 4.600789,7.967861 0,0.974191 -0.966616,-0.181671 -2.796294,-3.343765 z m 8.528934,2.391953 c -0.516044,-0.516041 0.236609,-0.61736 4.58611,-0.61736 4.056944,0 4.7625,0.0588 4.7625,0.396875 0,0.337513 -0.685956,0.396875 -4.58611,0.396875 -2.522363,0 -4.665488,-0.07937 -4.7625,-0.17639 z m 30.333488,-0.125841 c -1.39795,-0.386998 -1.93488,-1.33748 -1.93488,-3.425169 0,-0.992172 0.13307,-2.096003 0.29571,-2.452955 0.45351,-0.995363 1.79584,-1.601094 3.14659,-1.419921 1.5825,0.212257 2.45514,1.13211 2.48665,2.621174 l 0.0242,1.142643 -2.51354,0.132292 c -2.46478,0.129725 -2.51508,0.145523 -2.59287,0.814313 -0.10883,0.935781 0.68735,1.818241 1.79912,1.994072 0.7212,0.11406 1.15237,-0.0077 1.94925,-0.550291 1.05048,-0.715322 1.40535,-0.726514 1.14036,-0.03596 -0.37102,0.966859 -2.35031,1.581287 -3.80057,1.179806 z m 2.84502,-4.204994 c 0.68975,-0.369147 0.64407,-0.940777 -0.13766,-1.722509 -0.44838,-0.448382 -0.94356,-0.649433 -1.59953,-0.649433 -1.59345,0 -2.89192,1.715884 -1.78594,2.360057 0.60656,0.353287 2.87094,0.360926 3.52313,0.01188 z m 23.265934,4.266986 c -1.67557,-0.396785 -2.11666,-1.189657 -2.11666,-3.804775 0,-1.708814 0.0828,-2.052442 0.6389,-2.652525 1.82028,-1.964116 5.2356,-0.854673 5.29004,1.718437 l 0.0242,1.142643 -2.51354,0.132292 -2.51354,0.132292 -0.079,0.80727 c -0.16915,1.728864 2.22393,2.469533 3.92221,1.21394 0.93188,-0.688967 1.23708,-0.613262 0.80236,0.199025 -0.4885,0.912762 -2.10198,1.431793 -3.45496,1.111401 z m 2.74317,-4.331687 c 0.37462,-0.273932 0.41196,-0.472978 0.19553,-1.042247 -0.51185,-1.346243 -2.54198,-1.729936 -3.64925,-0.689708 -0.66062,0.620617 -0.81788,1.67894 -0.28163,1.895319 0.68426,0.276106 3.2902,0.162134 3.73535,-0.163364 z m 5.29375,4.269557 c -1.3176,-0.358137 -1.52829,-0.830429 -1.64285,-3.682828 -0.0957,-2.381946 -0.1502,-2.607268 -0.64885,-2.681087 -0.76395,-0.113096 -0.87177,-0.683479 -0.14892,-0.787797 0.37907,-0.0547 0.65507,-0.322691 0.75016,-0.728387 0.18258,-0.779005 0.79729,-1.055918 0.79729,-0.359164 0,0.713521 0.51778,1.133298 1.39788,1.133298 1.06846,0 0.78387,0.626457 -0.36058,0.79375 l -0.90501,0.132292 -0.0768,1.872922 c -0.0953,2.323155 0.22331,3.226694 1.26593,3.590155 1.34093,0.46745 0.96563,1.095708 -0.42823,0.716846 z M 83.453246,91.757612 c -0.15148,-0.09954 -1.37618,-1.75771 -2.72156,-3.684821 -1.34537,-1.927111 -2.55521,-3.571248 -2.68851,-3.653637 -0.27822,-0.171947 -0.27862,-0.166042 -0.2539,3.717894 0.0186,2.915118 -0.22224,3.973108 -0.77781,3.417536 -0.18364,-0.18364 -0.2568,-1.845115 -0.20946,-4.756913 0.0607,-3.730617 0.13875,-4.486545 0.46963,-4.545917 0.24886,-0.04465 1.36595,1.310857 2.99535,3.634645 1.42916,2.03822 2.70572,3.705857 2.8368,3.705857 0.13108,0 0.27146,-1.627351 0.31194,-3.616336 0.053,-2.603815 0.16622,-3.647098 0.40435,-3.726214 0.25641,-0.08519 0.33072,0.961691 0.33072,4.659053 0,2.622913 -0.095,4.827636 -0.21107,4.899383 -0.11609,0.07175 -0.335,0.04901 -0.48648,-0.05053 z m 22.049834,0.04873 c -0.31818,-0.318185 -0.23374,-0.470612 1.66647,-3.007834 1.01865,-1.36013 1.85209,-2.625241 1.85209,-2.811357 0,-0.229732 -0.52426,-0.363688 -1.63265,-0.417163 -1.01091,-0.04877 -1.67423,-0.204719 -1.74184,-0.409501 -0.0823,-0.249171 0.51608,-0.330729 2.4264,-0.330729 1.93024,0 2.53559,0.0838 2.53559,0.351017 0,0.193062 -0.83344,1.463853 -1.85209,2.823983 -1.01864,1.360131 -1.85208,2.625482 -1.85208,2.811894 0,0.232788 0.53932,0.363429 1.72219,0.417163 0.9472,0.04303 1.75087,0.197298 1.78594,0.342818 0.0729,0.302604 -4.61768,0.522047 -4.91002,0.229709 z M 94.204966,88.566318 c 0,-2.59987 0.0755,-3.205313 0.43736,-3.505729 0.39793,-0.330385 1.90571,-0.426633 3.79597,-0.242311 0.36381,0.03548 1.32285,-0.02122 2.131224,-0.125994 1.33552,-0.173093 1.54092,-0.129289 2.24896,0.479618 0.77263,0.664464 0.7792,0.694079 0.7792,3.513328 0,2.0383 -0.0936,2.875005 -0.33073,2.955505 -0.24437,0.08297 -0.33238,-0.394364 -0.33704,-1.827994 -0.007,-2.248281 -0.33505,-3.907253 -0.83445,-4.22389 -0.47187,-0.299183 -1.73193,-0.287695 -2.308824,0.02106 -0.41564,0.222443 -0.45503,0.564277 -0.3464,3.006648 0.0896,2.015138 0.0346,2.810021 -0.20469,2.957918 -0.57123,0.353039 -0.78902,-0.452385 -0.79319,-2.933394 -0.005,-2.673379 -0.31907,-3.282161 -1.69593,-3.282161 -1.6128,0 -1.74771,0.266223 -1.74771,3.448891 0,2.402375 -0.0682,2.901109 -0.39687,2.901109 -0.33051,0 -0.39688,-0.525568 -0.39688,-3.142604 z m 31.071114,2.795699 c -0.0732,-0.190799 -0.0992,-1.699146 -0.0579,-3.351879 0.0529,-2.113167 0.17343,-3.037547 0.40601,-3.114726 0.25332,-0.08407 0.33073,0.700427 0.33073,3.35188 0,2.20159 -0.0993,3.461631 -0.27289,3.461631 -0.15009,0 -0.33279,-0.156107 -0.406,-0.346906 z M 54.157857,90.710886 c -0.127815,-0.206812 3.991157,-7.501843 4.552942,-8.063628 0.226756,-0.226756 0.381127,-0.228044 0.604128,-0.0051 0.223002,0.223001 -0.290335,1.318254 -2.008936,4.28625 -2.08063,3.593216 -2.760342,4.409877 -3.148134,3.78242 z M 125.3448,83.07306 c -0.21138,-0.211383 0.0276,-0.624554 0.3612,-0.624554 0.13693,0 0.24897,0.178594 0.24897,0.396875 0,0.409154 -0.3122,0.525648 -0.61017,0.227679 z"
         id="path27"
         inkscape:connector-curvature="0" />
      <path
         style="stroke-width:0.26458335"
         d="m 85.717946,105.48761 c -0.71988,-0.71988 -0.7734,-0.91332 -0.7734,-2.79552 0,-1.11217 0.1226,-2.25119 0.27243,-2.53116 0.63907,-1.194107 2.9992,-1.682343 4.46595,-0.923859 1.05664,0.546415 1.42644,1.648509 1.30057,3.876069 -0.0943,1.66798 -0.19227,1.96233 -0.83863,2.51831 -0.57969,0.49863 -1.03571,0.62956 -2.19271,0.62956 -1.2618,0 -1.56617,-0.10537 -2.23421,-0.7734 z m 3.9891,-0.54952 c 0.41832,-0.41832 0.52917,-0.88194 0.52917,-2.21328 0,-2.26937 -0.59608,-3.078386 -2.26816,-3.078386 -1.7714,0 -2.22976,0.598266 -2.22976,2.910416 0,2.31981 0.45638,2.91042 2.24896,2.91042 0.83785,0 1.34742,-0.15679 1.71979,-0.52917 z m 3.09633,1.15605 c -0.38301,-0.38301 -0.13885,-0.86258 1.66617,-3.27272 1.01865,-1.36013 1.85209,-2.55865 1.85209,-2.66338 0,-0.3328 -0.7936,-0.511616 -2.2706,-0.511616 -0.78846,0 -1.43357,-0.119063 -1.43357,-0.264584 0,-0.157821 1.01424,-0.264583 2.51354,-0.264583 2.0762,0 2.51354,0.07021 2.51354,0.403495 0,0.221922 -0.84383,1.526148 -1.8752,2.898278 -1.03135,1.37213 -1.79823,2.61931 -1.70417,2.77151 0.0941,0.15219 0.94782,0.27672 1.89725,0.27672 1.26301,0 1.69683,0.0888 1.61667,0.33073 -0.11968,0.36135 -4.44246,0.62941 -4.77572,0.29615 z M 112.0014,105.7468 c -0.78747,-0.74314 -0.90067,-1.31033 -0.80861,-4.05146 0.108,-3.215851 0.57597,-3.0721 0.73926,0.22709 0.0843,1.70246 0.26413,2.83117 0.49542,3.10885 0.43572,0.52313 2.92939,0.6095 3.42042,0.11848 0.20804,-0.20805 0.3175,-1.31018 0.3175,-3.19705 0,-2.185803 0.0797,-2.853101 0.33073,-2.769768 0.23311,0.07738 0.35262,1.009418 0.40493,3.157968 0.0885,3.63397 0.0255,3.7293 -2.55405,3.86942 -1.49949,0.0815 -1.83926,0.0143 -2.3456,-0.46353 z m 15.18555,0.21456 c -1.13446,-0.65945 -1.60225,-3.59367 -0.85721,-5.37681 0.5587,-1.337142 1.47204,-1.825132 3.11969,-1.666813 1.80902,0.173824 2.65609,1.067311 2.53852,2.677613 l -0.0799,1.09378 -2.23577,0.0777 c -2.47464,0.086 -2.90797,0.28166 -2.72648,1.23106 0.30609,1.6012 2.61971,2.14665 3.92079,0.92435 0.45394,-0.42645 0.73564,-0.5281 0.92864,-0.3351 0.193,0.193 0.0253,0.48891 -0.55297,0.97545 -0.66728,0.56148 -1.09837,0.69684 -2.19878,0.69037 -0.75282,-0.004 -1.58827,-0.13565 -1.85657,-0.2916 z m 4.05969,-4.59515 c 0,-0.98467 -0.87959,-1.719786 -2.0578,-1.719786 -1.34053,0 -2.17554,0.615066 -2.17554,1.602506 v 0.77874 h 2.11667 c 2.08139,0 2.11667,-0.011 2.11667,-0.66146 z m -80.024041,4.38573 c -0.231445,-0.37449 4.333803,-8.222183 4.7831,-8.222183 0.200118,0 0.363852,0.118681 0.363852,0.263736 0,0.378167 -4.196334,7.578267 -4.623215,7.932547 -0.238493,0.19793 -0.41211,0.20652 -0.523737,0.0259 z m 25.645477,-0.0744 c -0.0766,-0.19959 -0.10642,-2.32285 -0.0663,-4.71836 0.0614,-3.662703 0.13609,-4.355464 0.46984,-4.355464 0.312,0 0.41341,0.438568 0.47415,2.050521 l 0.0773,2.050523 h 0.87456 c 0.77824,0 1.04657,-0.22384 2.43627,-2.03223 1.51519,-1.971696 2.22316,-2.584651 2.22316,-1.924788 0,0.176228 -0.61138,1.145127 -1.35863,2.153108 l -1.35863,1.83269 0.6692,0.71321 c 0.66466,0.70837 2.31265,3.75655 2.31265,4.27755 0,0.77912 -0.76348,0.0729 -1.53569,-1.42061 -1.12574,-2.1772 -1.63456,-2.62208 -3.03115,-2.65026 l -1.1217,-0.0226 -0.1323,2.09579 c -0.0846,1.34075 -0.25139,2.13506 -0.46288,2.20481 -0.18182,0.06 -0.39325,-0.0543 -0.46984,-0.25386 z m 22.80495,0.14249 c -0.097,-0.097 -0.17639,-1.44347 -0.17639,-2.99213 0,-3.578104 0.1636,-3.85075 2.293604,-3.822394 0.84857,0.0113 1.78098,0.04387 2.07202,0.07239 0.29104,0.02852 1.19209,-0.02344 2.00233,-0.115451 1.32196,-0.15013 1.55277,-0.09888 2.24895,0.49943 0.76856,0.660505 0.7758,0.693285 0.7758,3.511135 0,2.03964 -0.0936,2.87597 -0.33072,2.95596 -0.24875,0.0839 -0.3317,-0.50054 -0.33463,-2.35789 -0.005,-3.06688 -0.30096,-3.761611 -1.65127,-3.874207 -1.74483,-0.145492 -1.86268,0.05808 -1.89127,3.267057 -0.017,1.9054 -0.12723,2.8883 -0.33169,2.95715 -0.21561,0.0726 -0.33306,-0.72959 -0.39687,-2.71065 -0.10237,-3.17822 -0.32672,-3.564002 -2.07266,-3.564002 -1.45701,0 -1.58984,0.291801 -1.58984,3.492502 0,2.61597 -0.12774,3.17073 -0.617364,2.68111 z m 20.195024,-3.13445 c -1.2913,-3.048313 -1.53152,-4.148842 -0.73079,-3.34812 0.17446,0.174469 0.74571,1.3498 1.26943,2.61184 0.52373,1.26204 1.07816,2.3366 1.23207,2.3879 0.15391,0.0513 0.79165,-1.10533 1.41719,-2.57031 0.62554,-1.46498 1.26583,-2.615803 1.42287,-2.557393 0.39131,0.145542 0.31551,0.40858 -1.09803,3.810363 -0.86865,2.09046 -1.36685,2.97656 -1.67354,2.97656 -0.30788,0 -0.85039,-0.97661 -1.8392,-3.31084 z m 14.289,-1.54628 c 0,-4.448555 0.19519,-5.919844 0.63374,-4.777008 0.088,0.229348 0.16001,1.597882 0.16001,3.041189 v 2.624189 h 0.76161 c 0.59608,0 1.03182,-0.31627 2.00484,-1.4552 1.15774,-1.355163 1.73147,-1.764066 1.73147,-1.23405 0,0.12164 -0.42856,0.77124 -0.95236,1.44355 l -0.95235,1.2224 0.52093,0.73925 c 0.53853,0.76424 1.64836,2.85816 1.64836,3.10997 0,0.0786 -0.17658,0.14283 -0.39241,0.14283 -0.21583,0 -0.69192,-0.59103 -1.05798,-1.31341 -0.73686,-1.45412 -1.39203,-1.93561 -2.46529,-1.81175 -0.65893,0.076 -0.72482,0.19408 -0.84682,1.51712 -0.0746,0.80934 -0.27644,1.48206 -0.46302,1.5434 -0.25659,0.0844 -0.33073,-0.9899 -0.33073,-4.79248 z M 112.7258,97.265174 c 0.5229,-0.734337 1.32292,-1.082238 1.32292,-0.575286 0,0.331605 -1.17943,1.369036 -1.55642,1.369036 -0.21398,0 -0.13111,-0.281694 0.2335,-0.79375 z m 2.38125,0 c 0.5229,-0.734337 1.32292,-1.082238 1.32292,-0.575286 0,0.331605 -1.17943,1.369036 -1.55642,1.369036 -0.21398,0 -0.13111,-0.281694 0.2335,-0.79375 z m -28.839584,0 c 0,-0.14552 0.1786,-0.264583 0.39688,-0.264583 0.21828,0 0.39687,0.119063 0.39687,0.264583 0,0.145521 -0.17859,0.264584 -0.39687,0.264584 -0.21828,0 -0.39688,-0.119063 -0.39688,-0.264584 z m 2.64583,0 c 0,-0.14552 0.1786,-0.264583 0.39688,-0.264583 0.21828,0 0.39687,0.119063 0.39687,0.264583 0,0.145521 -0.17859,0.264584 -0.39687,0.264584 -0.21828,0 -0.39688,-0.119063 -0.39688,-0.264584 z M 49.339924,89.669747 c -1.154173,-1.99467 -2.182556,-3.83635 -2.285294,-4.09262 -0.206642,-0.515451 0.06262,-0.813094 0.480799,-0.531476 0.349731,0.235524 4.600789,7.597704 4.600789,7.967861 0,0.974191 -0.966616,-0.181671 -2.796294,-3.343765 z m 8.528934,2.391953 c -0.516044,-0.516041 0.236609,-0.61736 4.58611,-0.61736 4.056944,0 4.7625,0.0588 4.7625,0.396875 0,0.337513 -0.685956,0.396875 -4.58611,0.396875 -2.522363,0 -4.665488,-0.07937 -4.7625,-0.17639 z m 30.333488,-0.125841 c -1.39795,-0.386998 -1.93488,-1.33748 -1.93488,-3.425169 0,-0.992172 0.13307,-2.096003 0.29571,-2.452955 0.45351,-0.995363 1.79584,-1.601094 3.14659,-1.419921 1.5825,0.212257 2.45514,1.13211 2.48665,2.621174 l 0.0242,1.142643 -2.51354,0.132292 c -2.46478,0.129725 -2.51508,0.145523 -2.59287,0.814313 -0.10883,0.935781 0.68735,1.818241 1.79912,1.994072 0.7212,0.11406 1.15237,-0.0077 1.94925,-0.550291 1.05048,-0.715322 1.40535,-0.726514 1.14036,-0.03596 -0.37102,0.966859 -2.35031,1.581287 -3.80057,1.179806 z m 2.84502,-4.204994 c 0.68975,-0.369147 0.64407,-0.940777 -0.13766,-1.722509 -0.44838,-0.448382 -0.94356,-0.649433 -1.59953,-0.649433 -1.59345,0 -2.89192,1.715884 -1.78594,2.360057 0.60656,0.353287 2.87094,0.360926 3.52313,0.01188 z m 23.265934,4.266986 c -1.67557,-0.396785 -2.11666,-1.189657 -2.11666,-3.804775 0,-1.708814 0.0828,-2.052442 0.6389,-2.652525 1.82028,-1.964116 5.2356,-0.854673 5.29004,1.718437 l 0.0242,1.142643 -2.51354,0.132292 -2.51354,0.132292 -0.079,0.80727 c -0.16915,1.728864 2.22393,2.469533 3.92221,1.21394 0.93188,-0.688967 1.23708,-0.613262 0.80236,0.199025 -0.4885,0.912762 -2.10198,1.431793 -3.45496,1.111401 z m 2.74317,-4.331687 c 0.37462,-0.273932 0.41196,-0.472978 0.19553,-1.042247 -0.51185,-1.346243 -2.54198,-1.729936 -3.64925,-0.689708 -0.66062,0.620617 -0.81788,1.67894 -0.28163,1.895319 0.68426,0.276106 3.2902,0.162134 3.73535,-0.163364 z m 5.29375,4.269557 c -1.3176,-0.358137 -1.52829,-0.830429 -1.64285,-3.682828 -0.0957,-2.381946 -0.1502,-2.607268 -0.64885,-2.681087 -0.76395,-0.113096 -0.87177,-0.683479 -0.14892,-0.787797 0.37907,-0.0547 0.65507,-0.322691 0.75016,-0.728387 0.18258,-0.779005 0.79729,-1.055918 0.79729,-0.359164 0,0.713521 0.51778,1.133298 1.39788,1.133298 1.06846,0 0.78387,0.626457 -0.36058,0.79375 l -0.90501,0.132292 -0.0768,1.872922 c -0.0953,2.323155 0.22331,3.226694 1.26593,3.590155 1.34093,0.46745 0.96563,1.095708 -0.42823,0.716846 z M 83.453246,91.757612 c -0.15148,-0.09954 -1.37618,-1.75771 -2.72156,-3.684821 -1.34537,-1.927111 -2.55521,-3.571248 -2.68851,-3.653637 -0.27822,-0.171947 -0.27862,-0.166042 -0.2539,3.717894 0.0186,2.915118 -0.22224,3.973108 -0.77781,3.417536 -0.18364,-0.18364 -0.2568,-1.845115 -0.20946,-4.756913 0.0607,-3.730617 0.13875,-4.486545 0.46963,-4.545917 0.24886,-0.04465 1.36595,1.310857 2.99535,3.634645 1.42916,2.03822 2.70572,3.705857 2.8368,3.705857 0.13108,0 0.27146,-1.627351 0.31194,-3.616336 0.053,-2.603815 0.16622,-3.647098 0.40435,-3.726214 0.25641,-0.08519 0.33072,0.961691 0.33072,4.659053 0,2.622913 -0.095,4.827636 -0.21107,4.899383 -0.11609,0.07175 -0.335,0.04901 -0.48648,-0.05053 z m 22.049834,0.04873 c -0.31818,-0.318185 -0.23374,-0.470612 1.66647,-3.007834 1.01865,-1.36013 1.85209,-2.625241 1.85209,-2.811357 0,-0.229732 -0.52426,-0.363688 -1.63265,-0.417163 -1.01091,-0.04877 -1.67423,-0.204719 -1.74184,-0.409501 -0.0823,-0.249171 0.51608,-0.330729 2.4264,-0.330729 1.93024,0 2.53559,0.0838 2.53559,0.351017 0,0.193062 -0.83344,1.463853 -1.85209,2.823983 -1.01864,1.360131 -1.85208,2.625482 -1.85208,2.811894 0,0.232788 0.53932,0.363429 1.72219,0.417163 0.9472,0.04303 1.75087,0.197298 1.78594,0.342818 0.0729,0.302604 -4.61768,0.522047 -4.91002,0.229709 z M 94.204966,88.566318 c 0,-2.59987 0.0755,-3.205313 0.43736,-3.505729 0.39793,-0.330385 1.90571,-0.426633 3.79597,-0.242311 0.36381,0.03548 1.32285,-0.02122 2.131224,-0.125994 1.33552,-0.173093 1.54092,-0.129289 2.24896,0.479618 0.77263,0.664464 0.7792,0.694079 0.7792,3.513328 0,2.0383 -0.0936,2.875005 -0.33073,2.955505 -0.24437,0.08297 -0.33238,-0.394364 -0.33704,-1.827994 -0.007,-2.248281 -0.33505,-3.907253 -0.83445,-4.22389 -0.47187,-0.299183 -1.73193,-0.287695 -2.308824,0.02106 -0.41564,0.222443 -0.45503,0.564277 -0.3464,3.006648 0.0896,2.015138 0.0346,2.810021 -0.20469,2.957918 -0.57123,0.353039 -0.78902,-0.452385 -0.79319,-2.933394 -0.005,-2.673379 -0.31907,-3.282161 -1.69593,-3.282161 -1.6128,0 -1.74771,0.266223 -1.74771,3.448891 0,2.402375 -0.0682,2.901109 -0.39687,2.901109 -0.33051,0 -0.39688,-0.525568 -0.39688,-3.142604 z m 31.071114,2.795699 c -0.0732,-0.190799 -0.0992,-1.699146 -0.0579,-3.351879 0.0529,-2.113167 0.17343,-3.037547 0.40601,-3.114726 0.25332,-0.08407 0.33073,0.700427 0.33073,3.35188 0,2.20159 -0.0993,3.461631 -0.27289,3.461631 -0.15009,0 -0.33279,-0.156107 -0.406,-0.346906 z m 0.0687,-8.288957 c -0.21138,-0.211383 0.0276,-0.624554 0.3612,-0.624554 0.13693,0 0.24897,0.178594 0.24897,0.396875 0,0.409154 -0.3122,0.525648 -0.61017,0.227679 z"
         id="path25"
         inkscape:connector-curvature="0" />
      <path
         style="stroke-width:0.26458335"
         d="m 85.717946,105.48761 c -0.71988,-0.71988 -0.7734,-0.91332 -0.7734,-2.79552 0,-1.11217 0.1226,-2.25119 0.27243,-2.53116 0.63907,-1.194107 2.9992,-1.682343 4.46595,-0.923859 1.05664,0.546415 1.42644,1.648509 1.30057,3.876069 -0.0943,1.66798 -0.19227,1.96233 -0.83863,2.51831 -0.57969,0.49863 -1.03571,0.62956 -2.19271,0.62956 -1.2618,0 -1.56617,-0.10537 -2.23421,-0.7734 z m 3.9891,-0.54952 c 0.41832,-0.41832 0.52917,-0.88194 0.52917,-2.21328 0,-2.26937 -0.59608,-3.078386 -2.26816,-3.078386 -1.7714,0 -2.22976,0.598266 -2.22976,2.910416 0,2.31981 0.45638,2.91042 2.24896,2.91042 0.83785,0 1.34742,-0.15679 1.71979,-0.52917 z m 3.09633,1.15605 c -0.38301,-0.38301 -0.13885,-0.86258 1.66617,-3.27272 1.01865,-1.36013 1.85209,-2.55865 1.85209,-2.66338 0,-0.3328 -0.7936,-0.511616 -2.2706,-0.511616 -0.78846,0 -1.43357,-0.119063 -1.43357,-0.264584 0,-0.157821 1.01424,-0.264583 2.51354,-0.264583 2.0762,0 2.51354,0.07021 2.51354,0.403495 0,0.221922 -0.84383,1.526148 -1.8752,2.898278 -1.03135,1.37213 -1.79823,2.61931 -1.70417,2.77151 0.0941,0.15219 0.94782,0.27672 1.89725,0.27672 1.26301,0 1.69683,0.0888 1.61667,0.33073 -0.11968,0.36135 -4.44246,0.62941 -4.77572,0.29615 z M 112.0014,105.7468 c -0.78747,-0.74314 -0.90067,-1.31033 -0.80861,-4.05146 0.108,-3.215851 0.57597,-3.0721 0.73926,0.22709 0.0843,1.70246 0.26413,2.83117 0.49542,3.10885 0.43572,0.52313 2.92939,0.6095 3.42042,0.11848 0.20804,-0.20805 0.3175,-1.31018 0.3175,-3.19705 0,-2.185803 0.0797,-2.853101 0.33073,-2.769768 0.23311,0.07738 0.35262,1.009418 0.40493,3.157968 0.0885,3.63397 0.0255,3.7293 -2.55405,3.86942 -1.49949,0.0815 -1.83926,0.0143 -2.3456,-0.46353 z m 15.18555,0.21456 c -1.13446,-0.65945 -1.60225,-3.59367 -0.85721,-5.37681 0.5587,-1.337142 1.47204,-1.825132 3.11969,-1.666813 1.80902,0.173824 2.65609,1.067311 2.53852,2.677613 l -0.0799,1.09378 -2.23577,0.0777 c -2.47464,0.086 -2.90797,0.28166 -2.72648,1.23106 0.30609,1.6012 2.61971,2.14665 3.92079,0.92435 0.45394,-0.42645 0.73564,-0.5281 0.92864,-0.3351 0.193,0.193 0.0253,0.48891 -0.55297,0.97545 -0.66728,0.56148 -1.09837,0.69684 -2.19878,0.69037 -0.75282,-0.004 -1.58827,-0.13565 -1.85657,-0.2916 z m 4.05969,-4.59515 c 0,-0.98467 -0.87959,-1.719786 -2.0578,-1.719786 -1.34053,0 -2.17554,0.615066 -2.17554,1.602506 v 0.77874 h 2.11667 c 2.08139,0 2.11667,-0.011 2.11667,-0.66146 z m -54.378564,4.31133 c -0.0766,-0.19959 -0.10642,-2.32285 -0.0663,-4.71836 0.0614,-3.662704 0.13609,-4.355465 0.46984,-4.355465 0.312,0 0.41341,0.438568 0.47415,2.050521 l 0.0773,2.050524 h 0.87456 c 0.77824,0 1.04657,-0.22384 2.43627,-2.032231 1.51519,-1.971696 2.22316,-2.584651 2.22316,-1.924788 0,0.176228 -0.61138,1.145127 -1.35863,2.153108 l -1.35863,1.832691 0.6692,0.71321 c 0.66466,0.70837 2.31265,3.75655 2.31265,4.27754 0,0.77913 -0.76348,0.0729 -1.53569,-1.4206 -1.12574,-2.1772 -1.63456,-2.62208 -3.03115,-2.65026 l -1.1217,-0.0226 -0.1323,2.09579 c -0.0846,1.34075 -0.25139,2.13506 -0.46288,2.20481 -0.18182,0.06 -0.39325,-0.0543 -0.46984,-0.25386 z m 22.80495,0.14249 c -0.097,-0.097 -0.17639,-1.44347 -0.17639,-2.99214 0,-3.578095 0.1636,-3.850741 2.293604,-3.822385 0.84857,0.0113 1.78098,0.04387 2.07202,0.07239 0.29104,0.02852 1.19209,-0.02344 2.00233,-0.115451 1.32196,-0.15013 1.55277,-0.09888 2.24895,0.49943 0.76856,0.660506 0.7758,0.693286 0.7758,3.511136 0,2.03964 -0.0936,2.87597 -0.33072,2.95596 -0.24875,0.0839 -0.3317,-0.50054 -0.33463,-2.35789 -0.005,-3.06688 -0.30096,-3.761612 -1.65127,-3.874208 -1.74483,-0.145492 -1.86268,0.05808 -1.89127,3.267058 -0.017,1.9054 -0.12723,2.8883 -0.33169,2.95715 -0.21561,0.0726 -0.33306,-0.72959 -0.39687,-2.71065 -0.10237,-3.17822 -0.32672,-3.564003 -2.07266,-3.564003 -1.45701,0 -1.58984,0.291801 -1.58984,3.492503 0,2.61597 -0.12774,3.17073 -0.617364,2.68111 z m 20.195024,-3.13445 c -1.2913,-3.048314 -1.53152,-4.148843 -0.73079,-3.348121 0.17446,0.174469 0.74571,1.349791 1.26943,2.611841 0.52373,1.26204 1.07816,2.3366 1.23207,2.3879 0.15391,0.0513 0.79165,-1.10533 1.41719,-2.57031 0.62554,-1.46498 1.26583,-2.615804 1.42287,-2.557394 0.39131,0.145542 0.31551,0.40858 -1.09803,3.810364 -0.86865,2.09046 -1.36685,2.97656 -1.67354,2.97656 -0.30788,0 -0.85039,-0.97661 -1.8392,-3.31084 z m 14.289,-1.54629 c 0,-4.448546 0.19519,-5.919835 0.63374,-4.776999 0.088,0.229348 0.16001,1.597882 0.16001,3.041189 v 2.62419 h 0.76161 c 0.59608,0 1.03182,-0.31627 2.00484,-1.45521 1.15774,-1.355154 1.73147,-1.764057 1.73147,-1.234041 0,0.12164 -0.42856,0.771241 -0.95236,1.443551 l -0.95235,1.2224 0.52093,0.73925 c 0.53853,0.76424 1.64836,2.85816 1.64836,3.10997 0,0.0786 -0.17658,0.14283 -0.39241,0.14283 -0.21583,0 -0.69192,-0.59103 -1.05798,-1.31341 -0.73686,-1.45413 -1.39203,-1.93561 -2.46529,-1.81175 -0.65893,0.076 -0.72482,0.19408 -0.84682,1.51712 -0.0746,0.80934 -0.27644,1.48206 -0.46302,1.5434 -0.25659,0.0844 -0.33073,-0.9899 -0.33073,-4.79249 z M 112.7258,97.265173 c 0.5229,-0.734337 1.32292,-1.082238 1.32292,-0.575286 0,0.331605 -1.17943,1.369036 -1.55642,1.369036 -0.21398,0 -0.13111,-0.281694 0.2335,-0.79375 z m 2.38125,0 c 0.5229,-0.734337 1.32292,-1.082238 1.32292,-0.575286 0,0.331605 -1.17943,1.369036 -1.55642,1.369036 -0.21398,0 -0.13111,-0.281694 0.2335,-0.79375 z m -28.839584,0 c 0,-0.14552 0.1786,-0.264583 0.39688,-0.264583 0.21828,0 0.39687,0.119063 0.39687,0.264583 0,0.145521 -0.17859,0.264584 -0.39687,0.264584 -0.21828,0 -0.39688,-0.119063 -0.39688,-0.264584 z m 2.64583,0 c 0,-0.14552 0.1786,-0.264583 0.39688,-0.264583 0.21828,0 0.39687,0.119063 0.39687,0.264583 0,0.145521 -0.17859,0.264584 -0.39687,0.264584 -0.21828,0 -0.39688,-0.119063 -0.39688,-0.264584 z m -0.71095,-5.329314 c -1.39795,-0.386998 -1.93488,-1.33748 -1.93488,-3.425169 0,-0.992172 0.13307,-2.096003 0.29571,-2.452955 0.45351,-0.995363 1.79584,-1.601094 3.14659,-1.419921 1.5825,0.212257 2.45514,1.13211 2.48665,2.621174 l 0.0242,1.142643 -2.51354,0.132292 c -2.46478,0.129725 -2.51508,0.145523 -2.59287,0.814313 -0.10883,0.935781 0.68735,1.818241 1.79912,1.994072 0.7212,0.11406 1.15237,-0.0077 1.94925,-0.550291 1.05048,-0.715322 1.40535,-0.726514 1.14036,-0.03596 -0.37102,0.966859 -2.35031,1.581287 -3.80057,1.179806 z m 2.84502,-4.204994 c 0.68975,-0.369147 0.64407,-0.940777 -0.13766,-1.722509 -0.44838,-0.448382 -0.94356,-0.649433 -1.59953,-0.649433 -1.59345,0 -2.89192,1.715884 -1.78594,2.360057 0.60656,0.353287 2.87094,0.360926 3.52313,0.01188 z m 23.265934,4.266986 c -1.67557,-0.396785 -2.11666,-1.189657 -2.11666,-3.804775 0,-1.708814 0.0828,-2.052442 0.6389,-2.652525 1.82028,-1.964116 5.2356,-0.854673 5.29004,1.718437 l 0.0242,1.142643 -2.51354,0.132292 -2.51354,0.132292 -0.079,0.80727 c -0.16915,1.728864 2.22393,2.469533 3.92221,1.21394 0.93188,-0.688967 1.23708,-0.613262 0.80236,0.199025 -0.4885,0.912762 -2.10198,1.431793 -3.45496,1.111401 z m 2.74317,-4.331687 c 0.37462,-0.273932 0.41196,-0.472978 0.19553,-1.042247 -0.51185,-1.346243 -2.54198,-1.729936 -3.64925,-0.689708 -0.66062,0.620617 -0.81788,1.67894 -0.28163,1.895319 0.68426,0.276106 3.2902,0.162134 3.73535,-0.163364 z m 5.29375,4.269557 c -1.3176,-0.358137 -1.52829,-0.830429 -1.64285,-3.682828 -0.0957,-2.381946 -0.1502,-2.607268 -0.64885,-2.681087 -0.76395,-0.113096 -0.87177,-0.683479 -0.14892,-0.787797 0.37907,-0.0547 0.65507,-0.322691 0.75016,-0.728387 0.18258,-0.779005 0.79729,-1.055918 0.79729,-0.359164 0,0.713521 0.51778,1.133298 1.39788,1.133298 1.06846,0 0.78387,0.626457 -0.36058,0.79375 l -0.90501,0.132292 -0.0768,1.872922 c -0.0953,2.323155 0.22331,3.226694 1.26593,3.590155 1.34093,0.46745 0.96563,1.095708 -0.42823,0.716846 z M 83.453246,91.757612 c -0.15148,-0.09954 -1.37618,-1.75771 -2.72156,-3.684821 -1.34537,-1.927111 -2.55521,-3.571248 -2.68851,-3.653637 -0.27822,-0.171947 -0.27862,-0.166042 -0.2539,3.717894 0.0186,2.915118 -0.22224,3.973108 -0.77781,3.417536 -0.18364,-0.18364 -0.2568,-1.845115 -0.20946,-4.756913 0.0607,-3.730617 0.13875,-4.486545 0.46963,-4.545917 0.24886,-0.04465 1.36595,1.310857 2.99535,3.634645 1.42916,2.03822 2.70572,3.705857 2.8368,3.705857 0.13108,0 0.27146,-1.627351 0.31194,-3.616336 0.053,-2.603815 0.16622,-3.647098 0.40435,-3.726214 0.25641,-0.08519 0.33072,0.961691 0.33072,4.659053 0,2.622913 -0.095,4.827636 -0.21107,4.899383 -0.11609,0.07175 -0.335,0.04901 -0.48648,-0.05053 z m 22.049834,0.04873 c -0.31818,-0.318185 -0.23374,-0.470612 1.66647,-3.007834 1.01865,-1.36013 1.85209,-2.625241 1.85209,-2.811357 0,-0.229732 -0.52426,-0.363688 -1.63265,-0.417163 -1.01091,-0.04877 -1.67423,-0.204719 -1.74184,-0.409501 -0.0823,-0.249171 0.51608,-0.330729 2.4264,-0.330729 1.93024,0 2.53559,0.0838 2.53559,0.351017 0,0.193062 -0.83344,1.463853 -1.85209,2.823983 -1.01864,1.360131 -1.85208,2.625482 -1.85208,2.811894 0,0.232788 0.53932,0.363429 1.72219,0.417163 0.9472,0.04303 1.75087,0.197298 1.78594,0.342818 0.0729,0.302604 -4.61768,0.522047 -4.91002,0.229709 z M 94.204966,88.566318 c 0,-2.59987 0.0755,-3.205313 0.43736,-3.505729 0.39793,-0.330385 1.90571,-0.426633 3.79597,-0.242311 0.36381,0.03548 1.32285,-0.02122 2.131224,-0.125994 1.33552,-0.173093 1.54092,-0.129289 2.24896,0.479618 0.77263,0.664464 0.7792,0.694079 0.7792,3.513328 0,2.0383 -0.0936,2.875005 -0.33073,2.955505 -0.24437,0.08297 -0.33238,-0.394364 -0.33704,-1.827994 -0.007,-2.248281 -0.33505,-3.907253 -0.83445,-4.22389 -0.47187,-0.299183 -1.73193,-0.287695 -2.308824,0.02106 -0.41564,0.222443 -0.45503,0.564277 -0.3464,3.006648 0.0896,2.015138 0.0346,2.810021 -0.20469,2.957918 -0.57123,0.353039 -0.78902,-0.452385 -0.79319,-2.933394 -0.005,-2.673379 -0.31907,-3.282161 -1.69593,-3.282161 -1.6128,0 -1.74771,0.266223 -1.74771,3.448891 0,2.402375 -0.0682,2.901109 -0.39687,2.901109 -0.33051,0 -0.39688,-0.525568 -0.39688,-3.142604 z m 31.071114,2.795699 c -0.0732,-0.190799 -0.0992,-1.699146 -0.0579,-3.351879 0.0529,-2.113167 0.17343,-3.037547 0.40601,-3.114726 0.25332,-0.08407 0.33073,0.700427 0.33073,3.35188 0,2.20159 -0.0993,3.461631 -0.27289,3.461631 -0.15009,0 -0.33279,-0.156107 -0.406,-0.346906 z m 0.0687,-8.288957 c -0.21138,-0.211383 0.0276,-0.624554 0.3612,-0.624554 0.13693,0 0.24897,0.178594 0.24897,0.396875 0,0.409154 -0.3122,0.525648 -0.61017,0.227679 z"
         id="path23"
         inkscape:connector-curvature="0" />
    </g>
    <rect
       style="fill:none;stroke-width:0.26458332"
       id="rect33"
       width="107.53423"
       height="37.419647"
       x="39.876488"
       y="56.229164"
       ry="0.37797618" />
    <rect
       style="fill:none;stroke-width:0.26458332"
       id="rect35"
       width="106.96728"
       height="37.230648"
       x="36.285713"
       y="57.552082"
       ry="0.37797582" />
  </g>
</svg>
