<svg xmlns="http://www.w3.org/2000/svg" width="127.22" height="37.26" viewBox="0 0 127.22 37.26"><defs><style>.a{fill:#08979c;}</style></defs><g transform="translate(-18.57 -18.265)"><rect class="a" width="10.29" height="1.93" transform="translate(37.858 55.21) rotate(-80.59)"/><path class="a" d="M21.63,47.03l-.14.05.69,1.81,9.48-3.59.14-.05-.69-1.81Z"/><rect class="a" width="1.93" height="10.3" transform="translate(19.137 30.35) rotate(-50.58)"/><rect class="a" width="10.46" height="1.93" transform="translate(32 28.585) rotate(-80.61)"/><rect class="a" width="10.29" height="1.93" transform="matrix(0.936, -0.352, 0.352, 0.936, 41.632, 28.693)"/><rect class="a" width="1.93" height="10.21" transform="matrix(0.634, -0.773, 0.773, 0.634, 45.18, 38.665)"/><rect class="a" width="14.71" height="1.93" transform="translate(18.57 39.62)"/><rect class="a" width="14.71" height="1.93" transform="translate(34.495 31.71) rotate(-60)"/><rect class="a" width="1.93" height="14.71" transform="matrix(0.866, -0.5, 0.5, 0.866, 40.736, 38.639)"/><rect class="a" width="14.71" height="1.93" transform="matrix(0.5, -0.866, 0.866, 0.5, 29.925, 54.025)"/><rect class="a" width="1.93" height="14.71" transform="translate(23.696 23.533) rotate(-30)"/><rect class="a" width="14.71" height="1.93" transform="translate(40.14 32.45)"/><path class="a" d="M89,22.88c.58,0,.78.2.78.78V49.88c0,.58-.2.78-.78.78H87.77a.89.89,0,0,1-.82-.43L74.47,32.31A35.32,35.32,0,0,1,72.59,29c-.7-1.37-1.13-2.11-1.25-2.3h-.15c0,.19.07,1.13.23,2.77s.2,3,.2,4.15V49.88a.68.68,0,0,1-.75.78H69.66c-.59,0-.78-.2-.78-.78V23.66c0-.58.19-.78.78-.78h1.25a.94.94,0,0,1,.82.39L83.9,40.84c.59.86,1.29,2,2.07,3.4s1.22,2.23,1.41,2.51h.12c0-.28-.08-1.26-.24-3S87,40.64,87,39.47V23.62c0-.5.27-.74.78-.74Z"/><path class="a" d="M116.29,49.88c.27.5.16.78-.43.78h-1.25c-1,0-1.25-.12-1.57-.71l-4.34-8.68c-1.25-2.51-2.58-3.4-5.59-3.4h-4v12c0,.58-.16.78-.75.78H97.08c-.59,0-.78-.2-.78-.78V23.66c0-.58.19-.78.78-.78h1.29c.59,0,.75.2.75.78V35.28h4.61l8.77-11.73a1.89,1.89,0,0,1,1.56-.67h1.41c.59,0,.7.39.39.74l-9.27,12.21a7.81,7.81,0,0,1,4.73,4.38Z"/><path class="a" d="M145,22.88c.59,0,.79.2.79.78V49.88c0,.58-.2.78-.79.78h-1.17c-.59,0-.78-.2-.78-.78v-16a48.734,48.734,0,0,1,.47-6.92h-.16a55.4,55.4,0,0,1-3,6.1L134.4,43.58a.92.92,0,0,1-.9.58h-.78a1,1,0,0,1-.94-.58l-6-10.61a42.32,42.32,0,0,1-2.85-6h-.16a59.757,59.757,0,0,1,.43,7V49.88c0,.58-.19.78-.78.78h-1.1c-.58,0-.78-.2-.78-.78V23.66c0-.58.2-.78.78-.78h1a1.15,1.15,0,0,1,1.1.63l9.7,17.17,9.62-17.13c.32-.59.47-.67,1.1-.67Z"/></g></svg>